<?xml version="1.0" encoding="UTF-8" standalone="no"?><!DOCTYPE svg PUBLIC "-//W3C//DTD SVG 1.1//EN" "http://www.w3.org/Graphics/SVG/1.1/DTD/svg11.dtd"><svg width="100%" height="100%" viewBox="0 0 409 400" version="1.1" xmlns="http://www.w3.org/2000/svg" xmlns:xlink="http://www.w3.org/1999/xlink" xml:space="preserve" xmlns:serif="http://www.serif.com/" style="fill-rule:evenodd;clip-rule:evenodd;stroke-linejoin:round;stroke-miterlimit:2;"><path d="M203.558,0c-112.562,0 -203.558,91.667 -203.558,205.071c0,90.65 58.304,167.383 139.188,194.542c10.112,2.041 13.816,-4.413 13.816,-9.842c0,-4.754 -0.333,-21.05 -0.333,-38.029c-56.625,12.225 -68.417,-24.446 -68.417,-24.446c-9.1,-23.767 -22.583,-29.875 -22.583,-29.875c-18.534,-12.563 1.35,-12.563 1.35,-12.563c20.558,1.359 31.346,21.05 31.346,21.05c18.196,31.234 47.516,22.409 59.312,16.975c1.684,-13.241 7.079,-22.408 12.808,-27.5c-45.162,-4.754 -92.679,-22.408 -92.679,-101.179c0,-22.408 8.084,-40.741 20.892,-55c-2.021,-5.091 -9.1,-26.146 2.025,-54.325c0,0 17.188,-5.433 55.942,21.05c16.592,-4.489 33.703,-6.772 50.891,-6.791c17.188,-0.001 34.709,2.379 50.888,6.791c38.758,-26.483 55.946,-21.05 55.946,-21.05c11.125,28.179 4.041,49.234 2.02,54.325c13.146,14.258 20.896,32.592 20.896,55c0,78.771 -47.516,96.084 -93.016,101.179c7.416,6.45 13.816,18.671 13.816,38.025c0,27.5 -0.333,49.571 -0.333,56.359c0,5.433 3.708,11.887 13.817,9.85c80.883,-27.167 139.187,-103.896 139.187,-194.546c0.333,-113.404 -90.996,-205.071 -203.221,-205.071Z" style="fill:#fff;"/></svg>