<?xml version="1.0" encoding="UTF-8" standalone="no"?><!DOCTYPE svg PUBLIC "-//W3C//DTD SVG 1.1//EN" "http://www.w3.org/Graphics/SVG/1.1/DTD/svg11.dtd"><svg width="100%" height="100%" viewBox="0 0 309 330" version="1.1" xmlns="http://www.w3.org/2000/svg" xmlns:xlink="http://www.w3.org/1999/xlink" xml:space="preserve" xmlns:serif="http://www.serif.com/" style="fill-rule:evenodd;clip-rule:evenodd;stroke-linejoin:round;stroke-miterlimit:2;"><path d="M307.089,72.635c-4.749,-34.92 -35.516,-62.44 -71.989,-67.772c-6.153,-0.901 -29.468,-4.18 -83.475,-4.18l-0.403,-0c-54.022,-0 -65.612,3.279 -71.765,4.18c-35.457,5.185 -67.837,29.912 -75.693,65.245c-3.779,17.401 -4.182,36.693 -3.48,54.389c1,25.378 1.195,50.71 3.525,75.985c1.61,16.788 4.42,33.443 8.408,49.838c7.468,30.282 37.698,55.482 67.315,65.763c31.709,10.722 65.81,12.502 98.485,5.141c3.594,-0.827 7.149,-1.788 10.663,-2.881c7.931,-2.496 17.236,-5.288 24.077,-10.192c0.093,-0.069 0.171,-0.158 0.225,-0.26c0.054,-0.102 0.084,-0.216 0.088,-0.331l0,-24.491c-0.002,-0.108 -0.027,-0.214 -0.076,-0.311c-0.049,-0.096 -0.118,-0.181 -0.204,-0.248c-0.086,-0.066 -0.186,-0.113 -0.292,-0.137c-0.107,-0.023 -0.218,-0.023 -0.324,0.002c-20.934,4.945 -42.386,7.425 -63.909,7.385c-37.04,0 -47.002,-17.385 -49.855,-24.624c-2.293,-6.255 -3.749,-12.78 -4.331,-19.409c-0.006,-0.112 0.015,-0.223 0.06,-0.325c0.046,-0.102 0.115,-0.192 0.202,-0.262c0.088,-0.07 0.191,-0.12 0.301,-0.143c0.11,-0.025 0.224,-0.022 0.333,0.006c20.585,4.912 41.688,7.391 62.864,7.386c5.093,-0 10.171,-0 15.264,-0.133c21.298,-0.591 43.746,-1.669 64.7,-5.717c0.523,-0.103 1.046,-0.192 1.494,-0.325c33.052,-6.278 64.506,-25.983 67.703,-75.881c0.119,-1.965 0.418,-20.577 0.418,-22.615c0.015,-6.928 2.255,-49.145 -0.329,-75.083Zm-50.87,124.508l-34.755,0l0,-84.197c0,-17.726 -7.468,-26.766 -22.657,-26.766c-16.698,-0 -25.062,10.695 -25.062,31.817l0,46.088l-34.546,-0l0,-46.088c0,-21.122 -8.379,-31.817 -25.076,-31.817c-15.1,-0 -22.643,9.04 -22.658,26.766l0,84.197l-34.725,0l0,-86.753c0,-17.725 4.575,-31.808 13.726,-42.246c9.439,-10.414 21.821,-15.761 37.189,-15.761c17.788,-0 31.23,6.765 40.192,20.281l8.648,14.358l8.662,-14.358c8.961,-13.516 22.403,-20.281 40.162,-20.281c15.353,-0 27.735,5.347 37.204,15.761c9.151,10.428 13.726,24.511 13.726,42.246l-0.03,86.753Z" style="fill:#6364ff;fill-rule:nonzero;"/></svg>