<svg width="80" height="80" viewBox="0 0 80 80" fill="none" xmlns="http://www.w3.org/2000/svg">
<circle cx="40" cy="40" r="40" fill="#C4C4C4"/>
<path d="M61.1613 29.2454H48.0067V26.2446H61.1624V29.2454H61.1613ZM39.2494 41.5506C40.0982 42.758 40.5223 44.224 40.5223 45.9451C40.5223 47.7249 40.0441 49.3216 39.0712 50.732C38.4522 51.6653 37.6838 52.4536 36.7604 53.0883C35.7205 53.8223 34.4893 54.3256 33.0739 54.5946C31.654 54.8639 30.1171 55 28.4617 55H13.75V25H29.526C33.5025 25.0594 36.3217 26.1175 37.9865 28.1954C38.9854 29.4698 39.4803 30.999 39.4803 32.7765C39.4803 34.6106 38.9794 36.0781 37.9707 37.1931C37.4096 37.8183 36.5807 38.387 35.4834 38.9002C37.1455 39.459 38.4066 40.339 39.2494 41.5506ZM21.2837 36.8275H28.1961C29.6166 36.8275 30.7649 36.5795 31.6493 36.0838C32.5332 35.5889 32.9741 34.7092 32.9741 33.4461C32.9741 32.0507 32.3902 31.1244 31.2196 30.6786C30.2133 30.3689 28.9258 30.2094 27.3636 30.2094H21.2837V36.8275ZM33.6397 45.5165C33.6397 43.9582 32.9462 42.8808 31.5619 42.3028C30.7878 41.9742 29.6957 41.8063 28.2953 41.7943H21.2837V49.7891H28.1868C29.605 49.7891 30.7027 49.6186 31.4948 49.263C32.9234 48.609 33.6397 47.3644 33.6397 45.5165ZM66.042 40.636C66.2009 41.6175 66.2728 43.0416 66.2436 44.9029H49.207C49.301 47.0625 50.1128 48.5728 51.6525 49.4371C52.581 49.979 53.7067 50.2437 55.0249 50.2437C56.4149 50.2437 57.5479 49.921 58.42 49.2576C58.8951 48.9059 59.3143 48.4096 59.6767 47.7833H65.9212C65.7576 49.0588 65.0057 50.3525 63.6546 51.6672C61.5611 53.7568 58.6251 54.8045 54.8545 54.8045C51.7396 54.8045 48.9944 53.9209 46.6116 52.16C44.2367 50.3929 43.0439 47.5271 43.0439 43.5516C43.0439 39.8237 44.1148 36.9703 46.2636 34.9842C48.4204 32.9944 51.2038 32.004 54.6347 32.004C56.6683 32.004 58.5015 32.3379 60.137 33.009C61.7673 33.6808 63.1147 34.738 64.1759 36.1911C65.1362 37.4708 65.7538 38.9505 66.042 40.636ZM59.8955 41.1958C59.781 39.7025 59.2381 38.5722 58.2606 37.7998C57.291 37.0252 56.0799 36.6364 54.6347 36.6364C53.0619 36.6364 51.8474 37.052 50.9844 37.869C50.1156 38.6842 49.575 39.7926 49.3535 41.1959L59.8955 41.1958Z" fill="#4F4F4F"/>
</svg>
