<svg width="80" height="80" viewBox="0 0 80 80" fill="none" xmlns="http://www.w3.org/2000/svg">
<circle cx="40" cy="40" r="40" fill="#C4C4C4"/>
<path d="M63.7317 32.4973C63.7274 32.4674 63.72 32.4387 63.715 32.4087C63.705 32.3512 63.6942 32.2938 63.6793 32.2375C63.6706 32.2037 63.6581 32.1713 63.6477 32.1389C63.6314 32.0888 63.6151 32.0389 63.5951 31.9902C63.5811 31.9564 63.565 31.9227 63.5495 31.8902C63.528 31.8441 63.5057 31.799 63.4801 31.7554C63.4613 31.7228 63.4415 31.6915 63.4221 31.6605C63.3945 31.6179 63.3665 31.5766 63.3358 31.5366C63.3133 31.5068 63.2897 31.4767 63.266 31.448C63.2335 31.4106 63.1997 31.3731 63.164 31.338C63.1373 31.3106 63.1108 31.2831 63.0829 31.2579C63.0454 31.2243 63.0067 31.1917 62.9673 31.1607C62.9369 31.1368 62.9067 31.113 62.8749 31.0906C62.8629 31.0831 62.8524 31.0731 62.8411 31.0656L41.132 16.5929C40.4461 16.1357 39.5534 16.1357 38.8676 16.5929L17.1586 31.0654C17.1474 31.0729 17.1368 31.0829 17.125 31.0904C17.093 31.1129 17.0631 31.1367 17.0331 31.1605C16.9932 31.1917 16.9545 31.2243 16.9176 31.2578C16.8888 31.283 16.8627 31.3103 16.8357 31.3378C16.8002 31.373 16.7664 31.4105 16.7346 31.4478C16.7102 31.4767 16.6865 31.5067 16.6641 31.5365C16.6341 31.5764 16.6052 31.6177 16.5785 31.6603C16.5579 31.6915 16.5385 31.7227 16.5198 31.7553C16.4948 31.7989 16.4723 31.8439 16.4505 31.89C16.4348 31.9224 16.4185 31.9562 16.4049 31.99C16.3849 32.0387 16.3686 32.0887 16.3525 32.1387C16.3417 32.1712 16.33 32.2036 16.3205 32.2374C16.3056 32.2936 16.2956 32.3511 16.285 32.4085C16.2801 32.4385 16.2726 32.4672 16.2687 32.4972C16.2569 32.5846 16.25 32.6733 16.25 32.7633V47.2359C16.25 47.3258 16.2568 47.4145 16.2687 47.5033C16.2726 47.5321 16.2801 47.562 16.285 47.5905C16.2956 47.648 16.3056 47.7055 16.3205 47.7617C16.33 47.7955 16.3417 47.8281 16.3525 47.8605C16.3686 47.9103 16.3849 47.9604 16.4049 48.0103C16.4185 48.0444 16.4348 48.0768 16.4505 48.1094C16.4725 48.1555 16.4949 48.2003 16.5198 48.2454C16.5385 48.2767 16.5579 48.3077 16.5785 48.3391C16.6052 48.3815 16.6341 48.4228 16.6641 48.4629C16.6865 48.4941 16.7103 48.523 16.7346 48.5516C16.7665 48.5889 16.8002 48.6265 16.8357 48.6616C16.8626 48.6889 16.8888 48.7164 16.9176 48.7415C16.9545 48.7754 16.9932 48.8078 17.0331 48.839C17.0631 48.8628 17.0932 48.8867 17.125 48.9088C17.1368 48.9165 17.1474 48.9265 17.1586 48.9338L38.8676 63.4065C39.2104 63.6349 39.6054 63.75 40.0001 63.75C40.3943 63.75 40.789 63.6349 41.1321 63.4065L62.8411 48.9338C62.8524 48.9265 62.8629 48.9165 62.8749 48.9088C62.9067 48.8865 62.9368 48.8628 62.9673 48.839C63.0067 48.8078 63.0454 48.7754 63.0829 48.7415C63.111 48.7166 63.1373 48.6889 63.164 48.6616C63.1997 48.6265 63.2335 48.5889 63.266 48.5516C63.2897 48.5228 63.3133 48.4941 63.3358 48.4629C63.3665 48.4228 63.3946 48.3816 63.4221 48.3391C63.4415 48.3077 63.4613 48.2767 63.4801 48.2454C63.5057 48.2003 63.528 48.1555 63.5495 48.1094C63.565 48.0768 63.5811 48.0444 63.5951 48.0103C63.6151 47.9605 63.6312 47.9104 63.6477 47.8605C63.6581 47.8281 63.6706 47.7955 63.6793 47.7617C63.6944 47.7055 63.705 47.648 63.715 47.5905C63.72 47.5618 63.7274 47.532 63.7317 47.5033C63.7429 47.4145 63.75 47.3258 63.75 47.2359V32.7633C63.75 32.6734 63.7429 32.5848 63.7317 32.4973ZM42.0411 22.1051L58.0334 32.7659L50.8901 37.5446L42.0411 31.6253V22.1051V22.1051ZM37.9586 22.1051V31.6253L29.11 37.5446L21.9661 32.7659L37.9586 22.1051ZM20.332 36.5841L25.4388 39.9997L20.332 43.4156V36.5841V36.5841ZM37.9586 57.8942L21.9663 47.2333L29.1102 42.456L37.9588 48.3743V57.8942H37.9586ZM39.9999 44.8285L32.7806 39.9997L39.9999 35.171L47.2188 39.9997L39.9999 44.8285ZM42.0411 57.8942V48.3743L50.8901 42.456L58.0334 47.2333L42.0411 57.8942ZM59.6676 43.4155L54.5616 39.9995L59.6676 36.5839V43.4155Z" fill="#4F4F4F"/>
</svg>
