<svg class="github-logo" width="80" height="80" viewBox="0 0 80 80" fill="none" xmlns="http://www.w3.org/2000/svg">
<circle class="github-bg" cx="40" cy="40" r="40" fill="#C4C4C4"/>
<path class="github-fg" d="M74.6343 19.9233C71.0574 13.7942 66.2055 8.94184 60.0774 5.36503C53.9485 1.78804 47.2574 0 39.9996 0C32.7427 0 26.0495 1.78859 19.9218 5.36503C13.7932 8.94165 8.94155 13.7942 5.36464 19.9233C1.78827 26.0522 0 32.745 0 40.0015C0 48.7182 2.54295 56.5565 7.63012 63.5183C12.7168 70.4808 19.2879 75.2985 27.3431 77.9721C28.2807 78.1461 28.9748 78.0237 29.4261 77.6079C29.8776 77.1916 30.1031 76.6702 30.1031 76.0459C30.1031 75.9418 30.0942 75.0046 30.0768 73.2333C30.059 71.4621 30.0506 69.9169 30.0506 68.5984L28.8526 68.8057C28.0888 68.9456 27.1253 69.0049 25.962 68.9881C24.7992 68.9719 23.5921 68.85 22.3424 68.6234C21.0921 68.3988 19.9291 67.878 18.8527 67.0619C17.7767 66.2459 17.0129 65.1778 16.5615 63.8591L16.0406 62.6605C15.6935 61.8626 15.147 60.9761 14.4003 60.0045C13.6537 59.0319 12.8986 58.3726 12.1348 58.0254L11.7702 57.7644C11.5272 57.5909 11.3017 57.3816 11.0932 57.1388C10.8849 56.896 10.7289 56.653 10.6247 56.4096C10.5204 56.1661 10.6069 55.9663 10.8851 55.8096C11.1633 55.6529 11.666 55.5768 12.3955 55.5768L13.4368 55.7324C14.1312 55.8716 14.9903 56.2874 16.0149 56.9823C17.039 57.6766 17.8809 58.5793 18.5407 59.69C19.3397 61.114 20.3024 62.1992 21.4314 62.9459C22.5595 63.6926 23.6969 64.0653 24.8425 64.0653C25.9881 64.0653 26.9775 63.9784 27.8112 63.8057C28.6439 63.632 29.4252 63.3709 30.1547 63.0239C30.4672 60.6965 31.318 58.9084 32.7064 57.6586C30.7275 57.4506 28.9484 57.1373 27.3681 56.7208C25.7887 56.3038 24.1566 55.627 22.4728 54.6885C20.7882 53.7514 19.3906 52.5876 18.2799 51.1993C17.1689 49.8102 16.2572 47.9866 15.5459 45.7301C14.8343 43.4726 14.4784 40.8686 14.4784 37.9172C14.4784 33.7148 15.8502 30.1387 18.5933 27.1869C17.3083 24.0275 17.4296 20.4857 18.9576 16.5619C19.9645 16.2491 21.4578 16.4839 23.4367 17.2649C25.416 18.0462 26.8651 18.7156 27.7856 19.2705C28.7061 19.8253 29.4437 20.2955 29.9993 20.6767C33.2291 19.7742 36.5621 19.3229 39.9993 19.3229C43.4364 19.3229 46.7702 19.7742 50.0001 20.6767L51.9792 19.4272C53.3326 18.5935 54.9308 17.8295 56.77 17.135C58.6102 16.4408 60.0174 16.2496 60.9901 16.5625C62.552 20.4865 62.6912 24.0281 61.4058 27.1875C64.1487 30.1392 65.5211 33.7162 65.5211 37.9177C65.5211 40.8691 65.1639 43.4814 64.4534 45.7562C63.7419 48.0313 62.8223 49.8531 61.6942 51.2254C60.5649 52.5975 59.1584 53.7521 57.4747 54.6891C55.7905 55.6268 54.1579 56.3036 52.5785 56.7207C50.9983 57.1377 49.2192 57.4511 47.2403 57.6595C49.0452 59.2215 49.9478 61.6871 49.9478 65.0552V76.0445C49.9478 76.6688 50.1649 77.19 50.5994 77.6065C51.0334 78.0222 51.7187 78.1447 52.6564 77.9704C60.7126 75.2972 67.2838 70.4793 72.3702 63.5169C77.4561 56.555 80 48.7167 80 40C79.9982 32.7444 78.209 26.0522 74.6343 19.9233Z" fill="#4F4F4F"/>
</svg>
