<svg width="80" height="80" viewBox="0 0 80 80" fill="none" xmlns="http://www.w3.org/2000/svg">
<circle cx="40" cy="40" r="40" fill="#C4C4C4"/>
<path d="M62.5 45.2903V61.25H53.123V46.3592C53.123 42.6185 51.7667 40.0657 48.3725 40.0657C45.7815 40.0657 44.2395 41.7861 43.5612 43.4504C43.3138 44.0453 43.2502 44.8734 43.2502 45.7063V61.25H33.87C33.87 61.25 33.9963 36.0299 33.87 33.4169H43.2492V37.3622C43.2302 37.3917 43.2055 37.4235 43.1876 37.4521H43.2492V37.3622C44.4954 35.4684 46.7208 32.7631 51.7021 32.7631C57.8735 32.7629 62.5 36.7411 62.5 45.2903ZM24.0579 20C20.8489 20 18.75 22.0768 18.75 24.808C18.75 27.4796 20.7882 29.6194 23.9334 29.6194H23.996C27.2671 29.6194 29.3015 27.48 29.3015 24.808C29.2398 22.0768 27.2671 20 24.0579 20ZM19.3071 61.25H28.6837V33.4169H19.3071V61.25Z" fill="#4F4F4F"/>
</svg>
