<svg class="rss-logo" width="80" height="80" viewBox="0 0 80 80" fill="none" xmlns="http://www.w3.org/2000/svg">
<circle class="rss-bg" cx="40" cy="40" r="40" fill="#C4C4C4"/>
<path class="rss-fg" d="M30.9083 54.5428C30.9083 51.5317 28.4653 49.0887 25.4541 49.0887C22.443 49.0887 20 51.5317 20 54.5428C20 57.554 22.443 59.997 25.4541 59.997C28.4653 59.997 30.9083 57.554 30.9083 54.5428ZM45.4526 58.0369C44.9697 51.9862 42.3278 46.2764 38.01 41.987C33.7205 37.6691 28.0108 35.0273 21.9601 34.5443C21.9033 34.5443 21.8749 34.5443 21.818 34.5443C21.3635 34.5443 20.909 34.7148 20.5965 35.0273C20.1988 35.3682 20 35.8511 20 36.3624V40.1973C20 41.1348 20.7102 41.9017 21.6476 41.987C30.3117 42.8108 37.1862 49.6852 38.01 58.3494C38.0952 59.2868 38.8622 59.997 39.7996 59.997H43.6346C44.1459 59.997 44.6288 59.7981 44.9697 59.4004C45.3106 59.0311 45.481 58.5482 45.4526 58.0369ZM59.997 58.0937C59.4856 48.1513 55.3098 38.8054 48.2365 31.7605C41.1916 24.6871 31.8457 20.5113 21.9033 20C21.8749 20 21.8465 20 21.818 20C21.3635 20 20.909 20.1704 20.5681 20.5113C20.1988 20.8522 20 21.3067 20 21.818V25.8802C20 26.8177 20.7386 27.6131 21.7044 27.6699C38.2088 28.6357 51.3613 41.7881 52.2987 58.2925C52.3555 59.2584 53.1509 59.997 54.1167 59.997H58.1789C58.6902 59.997 59.1447 59.7981 59.4856 59.4288C59.8549 59.0595 60.0254 58.5766 59.997 58.0937Z" fill="#4F4F4F"/>
</svg>
