<svg width="80" height="80" viewBox="0 0 80 80" fill="none" xmlns="http://www.w3.org/2000/svg">
<circle cx="40" cy="40" r="40" fill="#C4C4C4"/>
<path d="M31.1171 60C50.4568 60 61.0348 44.1285 61.0348 30.3648C61.0348 29.914 61.0348 29.4653 61.0041 29.0185C63.0619 27.5441 64.8383 25.7185 66.25 23.6272C64.331 24.4695 62.2952 25.0219 60.2107 25.2659C62.4057 23.9642 64.0486 21.9169 64.8334 19.505C62.7694 20.7182 60.5113 21.5732 58.1566 22.0331C56.5712 20.3633 54.4745 19.2576 52.1908 18.8871C49.9072 18.5166 47.5639 18.902 45.5236 19.9836C43.4833 21.0652 41.8597 22.7827 40.9042 24.8704C39.9486 26.9581 39.7143 29.2996 40.2375 31.5325C36.0571 31.3249 31.9674 30.2488 28.2341 28.374C24.5007 26.4992 21.2071 23.8677 18.567 20.6503C17.2224 22.9432 16.8106 25.6575 17.4154 28.2407C18.0202 30.8238 19.5961 33.0815 21.8224 34.5541C20.1491 34.5049 18.5122 34.0578 17.05 33.2504C17.05 33.293 17.05 33.3377 17.05 33.3824C17.0507 35.7871 17.891 38.1176 19.4286 39.9785C20.9661 41.8394 23.1062 43.1163 25.4858 43.5924C23.9377 44.0106 22.3135 44.0718 20.7379 43.7711C21.4099 45.8407 22.718 47.6505 24.4793 48.9474C26.2407 50.2443 28.3673 50.9634 30.5616 51.0043C26.8382 53.9029 22.2387 55.4764 17.503 55.4717C16.6665 55.4701 15.8307 55.4199 15 55.3214C19.8086 58.3781 25.4036 59.9994 31.1171 59.9919" fill="#4F4F4F"/>
</svg>
