<svg width="64" height="65" viewBox="0 0 64 65" fill="none" xmlns="http://www.w3.org/2000/svg">
<circle cx="32" cy="32.9198" r="32" fill="#F7920E"/>
<path d="M17.0938 19.4198H46.9063C49.7188 19.4198 51.1363 20.7473 51.1363 23.4473V42.3923C51.1363 45.0698 49.7188 46.4198 46.9063 46.4198H17.0938C14.2813 46.4198 12.8638 45.0698 12.8638 42.3923V23.4473C12.8638 20.7473 14.2813 19.4198 17.0938 19.4198ZM31.9888 38.7698L47.1538 26.3273C47.6938 25.8773 48.1213 24.8423 47.4463 23.9198C46.7938 22.9973 45.6013 22.9748 44.8138 23.5373L31.9888 32.2223L19.1863 23.5373C18.3988 22.9748 17.2063 22.9973 16.5538 23.9198C15.8788 24.8423 16.3063 25.8773 16.8463 26.3273L31.9888 38.7698Z" fill="#F2FAFC"/>
</svg>
