<svg width="65" height="65" viewBox="0 0 65 65" fill="none" xmlns="http://www.w3.org/2000/svg">
<circle cx="32.5" cy="32.9198" r="32" fill="#F7920E"/>
<path d="M50.7501 23.1305C48.9169 19.9893 46.4303 17.5025 43.2897 15.6694C40.1486 13.8362 36.7194 12.9198 32.9998 12.9198C29.2807 12.9198 25.8504 13.8365 22.7099 15.6694C19.569 17.5024 17.0825 19.9893 15.2494 23.1305C13.4165 26.2715 12.5 29.7016 12.5 33.4205C12.5 37.8879 13.8033 41.905 16.4104 45.473C19.0173 49.0412 22.3851 51.5103 26.5133 52.8805C26.9939 52.9697 27.3496 52.9069 27.5809 52.6939C27.8123 52.4805 27.9278 52.2133 27.9278 51.8933C27.9278 51.84 27.9233 51.3597 27.9144 50.4519C27.9052 49.5441 27.9009 48.7522 27.9009 48.0765L27.287 48.1827C26.8955 48.2544 26.4017 48.2848 25.8055 48.2762C25.2096 48.2679 24.591 48.2054 23.9505 48.0893C23.3097 47.9742 22.7137 47.7073 22.162 47.289C21.6106 46.8708 21.2191 46.3234 20.9877 45.6476L20.7208 45.0333C20.5429 44.6244 20.2628 44.1701 19.8802 43.6721C19.4975 43.1737 19.1105 42.8358 18.7191 42.6578L18.5322 42.524C18.4077 42.4351 18.2921 42.3279 18.1853 42.2034C18.0785 42.079 17.9986 41.9545 17.9452 41.8297C17.8917 41.7049 17.936 41.6025 18.0786 41.5222C18.2212 41.4419 18.4788 41.4029 18.8527 41.4029L19.3863 41.4827C19.7423 41.554 20.1825 41.7671 20.7076 42.1232C21.2325 42.4791 21.664 42.9417 22.0021 43.5109C22.4116 44.2407 22.905 44.7969 23.4836 45.1796C24.0617 45.5622 24.6446 45.7533 25.2318 45.7533C25.8189 45.7533 26.326 45.7088 26.7532 45.6202C27.18 45.5312 27.5804 45.3974 27.9543 45.2196C28.1145 44.0267 28.5505 43.1104 29.2621 42.4698C28.2479 42.3632 27.336 42.2027 26.5261 41.9892C25.7167 41.7755 24.8802 41.4286 24.0173 40.9477C23.1539 40.4674 22.4377 39.871 21.8684 39.1594C21.2991 38.4475 20.8318 37.5129 20.4673 36.3565C20.1026 35.1995 19.9202 33.8649 19.9202 32.3523C19.9202 30.1986 20.6232 28.3659 22.029 26.8531C21.3705 25.2339 21.4327 23.4187 22.2157 21.4078C22.7318 21.2474 23.4971 21.3678 24.5113 21.768C25.5257 22.1685 26.2684 22.5115 26.7401 22.796C27.2119 23.0803 27.5899 23.3212 27.8747 23.5166C29.5299 23.0541 31.2381 22.8228 32.9996 22.8228C34.7612 22.8228 36.4697 23.0541 38.1251 23.5166L39.1394 22.8763C39.833 22.449 40.652 22.0574 41.5946 21.7015C42.5377 21.3457 43.2589 21.2477 43.7574 21.4081C44.5579 23.4191 44.6292 25.2342 43.9705 26.8534C45.3762 28.3662 46.0795 30.1994 46.0795 32.3526C46.0795 33.8652 45.8965 35.204 45.5323 36.3698C45.1677 37.5358 44.6964 38.4695 44.1183 39.1728C43.5395 39.876 42.8187 40.4677 41.9558 40.948C41.0927 41.4285 40.2559 41.7754 39.4465 41.9891C38.6367 42.2029 37.7248 42.3635 36.7106 42.4703C37.6356 43.2708 38.0982 44.5344 38.0982 46.2606V51.8926C38.0982 52.2125 38.2095 52.4797 38.4322 52.6931C38.6546 52.9062 39.0058 52.9689 39.4864 52.8796C43.6152 51.5096 46.9829 49.0404 49.5898 45.4722C52.1963 41.9042 53.5 37.8871 53.5 33.4198C53.4991 29.7013 52.5821 26.2715 50.7501 23.1305Z" fill="#F2FAFC"/>
</svg>
