<svg xmlns="http://www.w3.org/2000/svg" xml:space="preserve" style="fill-rule:evenodd;clip-rule:evenodd;stroke-linejoin:round;stroke-miterlimit:2" viewBox="0 0 300 300"><circle cx="200.899" cy="164.08" r="143.63" style="fill:#f7920e" transform="matrix(.22628 0 0 .22628 -12.96 -4.627)"/><path d="M169.446 111.27c-2.545 13.093-22.794 27.422-46.05 30.199-12.127 1.447-24.067 2.777-36.799 2.193-20.822-.954-37.252-4.97-37.252-4.97 0 2.027.125 3.957.375 5.762 2.707 20.549 20.376 21.78 37.113 22.354 16.893.578 31.935-4.165 31.935-4.165l.694 15.272s-11.816 6.345-32.865 7.512c-11.607.638-26.019-.292-42.805-4.735C7.386 171.056 1.125 132.249.167 92.873-.125 81.182.055 70.158.055 60.938c0-40.264 26.381-52.066 26.381-52.066C39.738 2.763 62.563.194 86.292 0h.583c23.729.194 46.569 2.763 59.87 8.872 0 0 26.38 11.802 26.38 52.066 0 0 .331 29.707-3.679 50.332" style="fill:#fff;fill-rule:nonzero" transform="matrix(.22785 0 0 .22785 12.775 11.355)"/><path d="M142.008 64.062v48.753h-19.315v-47.32c0-9.975-4.197-15.038-12.592-15.038-9.282 0-13.934 6.006-13.934 17.882V94.24H76.966V68.339c0-11.876-4.653-17.882-13.935-17.882-8.395 0-12.592 5.063-12.592 15.038v47.32H31.124V64.062c0-9.964 2.537-17.882 7.633-23.74 5.255-5.858 12.137-8.861 20.68-8.861 9.884 0 17.369 3.799 22.318 11.398l4.811 8.065 4.812-8.065c4.948-7.599 12.433-11.398 22.318-11.398 8.542 0 15.424 3.003 20.68 8.861 5.095 5.858 7.632 13.776 7.632 23.74" style="fill:#f7920e;fill-rule:nonzero" transform="matrix(.22785 0 0 .22785 12.775 11.355)"/></svg>