<svg width="64" height="65" viewBox="0 0 64 65" fill="none" xmlns="http://www.w3.org/2000/svg">
<circle cx="32" cy="32.9198" r="32" fill="#F7920E"/>
<path d="M24.8937 48.9198C40.3654 48.9198 48.8278 36.2226 48.8278 25.2117C48.8278 24.851 48.8278 24.492 48.8032 24.1346C50.4495 22.9551 51.8706 21.4946 53 19.8216C51.4648 20.4954 49.8362 20.9373 48.1686 21.1325C49.9246 20.0912 51.2388 18.4533 51.8668 16.5238C50.2155 17.4944 48.4091 18.1784 46.5253 18.5463C45.257 17.2104 43.5796 16.3259 41.7527 16.0295C39.9257 15.7331 38.0511 16.0414 36.4189 16.9067C34.7866 17.7719 33.4878 19.146 32.7234 20.8161C31.9589 22.4863 31.7715 24.3595 32.19 26.1458C28.8457 25.9797 25.5739 25.1188 22.5872 23.619C19.6006 22.1192 16.9657 20.014 14.8536 17.44C13.7779 19.2744 13.4484 21.4458 13.9323 23.5123C14.4161 25.5788 15.6769 27.385 17.4579 28.563C16.1193 28.5237 14.8098 28.166 13.64 27.5201C13.64 27.5542 13.64 27.59 13.64 27.6257C13.6405 29.5495 14.3128 31.4139 15.5429 32.9026C16.7729 34.3913 18.4849 35.4128 20.3886 35.7937C19.1502 36.1283 17.8508 36.1772 16.5904 35.9367C17.1279 37.5924 18.1744 39.0402 19.5835 40.0777C20.9926 41.1152 22.6938 41.6906 24.4492 41.7232C21.4706 44.0421 17.7909 45.3009 14.0024 45.2971C13.3332 45.2959 12.6645 45.2557 12 45.1769C15.8468 47.6223 20.3229 48.9193 24.8937 48.9133" fill="#F2FAFC"/>
</svg>
