<svg width="64" height="64" viewBox="0 0 64 64" fill="none" xmlns="http://www.w3.org/2000/svg">
<rect width="64" height="64" fill="black" fill-opacity="0"/>
<circle cx="32" cy="32" r="32" fill="#C4C4C4"/>
<path d="M48.929 23.3963H38.4054V20.9957H48.9299V23.3963H48.929ZM31.3995 33.2405C32.0786 34.2064 32.4179 35.3792 32.4179 36.7561C32.4179 38.1799 32.0353 39.4573 31.257 40.5856C30.7618 41.3322 30.147 41.9629 29.4083 42.4707C28.5764 43.0579 27.5914 43.4605 26.4591 43.6756C25.3232 43.8911 24.0937 44 22.7693 44H11V20H23.6208C26.802 20.0475 29.0574 20.894 30.3892 22.5563C31.1883 23.5758 31.5843 24.7992 31.5843 26.2212C31.5843 27.6885 31.1835 28.8625 30.3766 29.7545C29.9277 30.2546 29.2646 30.7096 28.3867 31.1202C29.7164 31.5672 30.7253 32.2712 31.3995 33.2405ZM17.0269 29.462H22.5568C23.6933 29.462 24.6119 29.2636 25.3195 28.8671C26.0265 28.4712 26.3793 27.7674 26.3793 26.7569C26.3793 25.6405 25.9122 24.8995 24.9757 24.5429C24.1707 24.2951 23.1407 24.1675 21.8909 24.1675H17.0269V29.462ZM26.9118 36.4132C26.9118 35.1665 26.357 34.3047 25.2495 33.8422C24.6303 33.5794 23.7565 33.445 22.6362 33.4354H17.0269V39.8313H22.5494C23.684 39.8313 24.5621 39.6949 25.1958 39.4104C26.3387 38.8872 26.9118 37.8915 26.9118 36.4132ZM52.8336 32.5088C52.9607 33.294 53.0183 34.4333 52.9949 35.9223H39.3656C39.4408 37.65 40.0903 38.8582 41.322 39.5496C42.0648 39.9832 42.9654 40.195 44.0199 40.195C45.1319 40.195 46.0383 39.9368 46.736 39.4061C47.1161 39.1248 47.4514 38.7277 47.7413 38.2267H52.7369C52.6061 39.2471 52.0046 40.282 50.9236 41.3338C49.2489 43.0054 46.9001 43.8436 43.8836 43.8436C41.3917 43.8436 39.1955 43.1367 37.2893 41.728C35.3894 40.3143 34.4352 38.0217 34.4352 34.8413C34.4352 31.8589 35.2918 29.5762 37.0109 27.9874C38.7363 26.3955 40.963 25.6032 43.7078 25.6032C45.3346 25.6032 46.8012 25.8703 48.1096 26.4072C49.4138 26.9446 50.4917 27.7904 51.3407 28.9529C52.109 29.9766 52.6031 31.1604 52.8336 32.5088ZM47.9164 32.9567C47.8248 31.762 47.3905 30.8578 46.6084 30.2398C45.8328 29.6202 44.8639 29.3091 43.7078 29.3091C42.4495 29.3091 41.4779 29.6416 40.7875 30.2952C40.0925 30.9474 39.66 31.8341 39.4828 32.9568L47.9164 32.9567Z" fill="#4F4F4F"/>
</svg>
