<svg width="64" height="64" viewBox="0 0 64 64" fill="none" xmlns="http://www.w3.org/2000/svg">
<rect width="64" height="64" fill="black" fill-opacity="0"/>
<circle cx="32" cy="32" r="32" fill="#C4C4C4"/>
<path d="M51.3474 21.9624H39.3204V19.1616H51.3484V21.9624H51.3474ZM31.3137 33.4472C32.0898 34.5741 32.4776 35.9424 32.4776 37.5487C32.4776 39.2099 32.0403 40.7002 31.1508 42.0165C30.5849 42.8876 29.8823 43.6234 29.0381 44.2158C28.0873 44.9008 26.9616 45.3706 25.6675 45.6216C24.3693 45.873 22.9642 46 21.4507 46H8V18H22.4238C26.0595 18.0554 28.637 19.043 30.1591 20.9824C31.0724 22.1718 31.5249 23.5991 31.5249 25.258C31.5249 26.9699 31.0669 28.3396 30.1447 29.3803C29.6317 29.9637 28.8738 30.4945 27.8706 30.9736C29.3902 31.4951 30.5432 32.3164 31.3137 33.4472ZM14.8879 29.039H21.2078C22.5066 29.039 23.5565 28.8076 24.3651 28.3449C25.1732 27.883 25.5764 27.0619 25.5764 25.8831C25.5764 24.5806 25.0425 23.7161 23.9722 23.3C23.0522 23.011 21.8751 22.8621 20.4467 22.8621H14.8879V29.039ZM26.1849 37.1488C26.1849 35.6943 25.5508 34.6888 24.2852 34.1493C23.5775 33.8426 22.5789 33.6859 21.2986 33.6747H14.8879V41.1365H21.1993C22.496 41.1365 23.4996 40.9774 24.2238 40.6454C25.5299 40.0351 26.1849 38.8735 26.1849 37.1488ZM55.8098 32.5936C55.9551 33.5097 56.0209 34.8388 55.9942 36.5761H40.4178C40.5038 38.5917 41.246 40.0013 42.6537 40.8079C43.5026 41.3138 44.5318 41.5608 45.7371 41.5608C47.0079 41.5608 48.0438 41.2596 48.8411 40.6404C49.2756 40.3122 49.6588 39.849 49.9901 39.2644H55.6993C55.5498 40.4549 54.8624 41.6624 53.627 42.8894C51.713 44.8396 49.0287 45.8175 45.5813 45.8175C42.7334 45.8175 40.2234 44.9928 38.0449 43.3493C35.8735 41.7 34.783 39.0253 34.783 35.3148C34.783 31.8354 35.7621 29.1723 37.7267 27.3186C39.6986 25.4614 42.2434 24.5371 45.3803 24.5371C47.2396 24.5371 48.9157 24.8487 50.4109 25.475C51.9015 26.102 53.1334 27.0888 54.1036 28.445C54.9817 29.6394 55.5464 31.0204 55.8098 32.5936ZM50.1902 33.1161C50.0855 31.7223 49.5891 30.6674 48.6954 29.9465C47.809 29.2235 46.7016 28.8606 45.3803 28.8606C43.9423 28.8606 42.8319 29.2485 42.0429 30.011C41.2486 30.7719 40.7543 31.8064 40.5518 33.1162L50.1902 33.1161Z" fill="#4F4F4F"/>
</svg>
