
<svg width="28px" height="32px" viewBox="0 0 28 32" version="1.1" xmlns="http://www.w3.org/2000/svg" xmlns:xlink="http://www.w3.org/1999/xlink">
    <!-- Generator: Sketch 50.2 (55047) - http://www.bohemiancoding.com/sketch -->
    <desc>Created with Sketch.</desc>
    <defs></defs>
    <g id="Mobile" stroke="none" stroke-width="1" fill="none" fill-rule="evenodd">
        <g id="iPhone-8-Copy" transform="translate(-49.000000, -94.000000)" fill="#FBFAEE">
            <g id="Group" transform="translate(36.000000, 60.000000)">
                <g id="bookmark-icon-Bkwv9IoCG" transform="translate(13.000000, 34.000000)">
                    <path d="M4,0 L4,32 L1.999,32 C0.893,32 0,31.105 0,30 L0,2 C0,0.895 0.893,0 1.999,0 L4,0 Z M26,0 L24,0 L24,14 L20,10 L16,14 L16,0 L6,0 L6,32 L26,32 C27.105,32 28,31.105 28,30 L28,2 C28,0.895 27.105,0 26,0 Z" id="Shape"></path>
                </g>
            </g>
        </g>
    </g>
</svg>