<svg width="64" height="64" viewBox="0 0 64 64" fill="none" xmlns="http://www.w3.org/2000/svg">
<rect width="64" height="64" fill="black" fill-opacity="0"/>
<circle cx="32" cy="32" r="32" fill="#C4C4C4"/>
<rect width="38" height="38" fill="black" fill-opacity="0" transform="translate(13 13)"/>
<rect width="38" height="38" fill="black" fill-opacity="0" transform="translate(13 13)"/>
<path d="M50.9854 25.9979C50.9819 25.9739 50.976 25.9509 50.972 25.927C50.964 25.881 50.9554 25.835 50.9435 25.79C50.9365 25.763 50.9265 25.7371 50.9181 25.7111C50.9051 25.6711 50.8921 25.6311 50.8761 25.5921C50.8649 25.5651 50.852 25.5382 50.8396 25.5121C50.8224 25.4752 50.8046 25.4392 50.784 25.4043C50.769 25.3783 50.7532 25.3532 50.7377 25.3284C50.7156 25.2943 50.6932 25.2613 50.6686 25.2293C50.6507 25.2055 50.6317 25.1814 50.6128 25.1584C50.5868 25.1285 50.5597 25.0985 50.5312 25.0704C50.5098 25.0485 50.4887 25.0265 50.4663 25.0063C50.4363 24.9794 50.4053 24.9534 50.3739 24.9285C50.3495 24.9095 50.3253 24.8904 50.2999 24.8725C50.2903 24.8665 50.2819 24.8585 50.2728 24.8524L32.9056 13.2743C32.3569 12.9086 31.6427 12.9086 31.0941 13.2743L13.7269 24.8523C13.7179 24.8583 13.7095 24.8663 13.7 24.8724C13.6744 24.8903 13.6505 24.9094 13.6265 24.9284C13.5945 24.9534 13.5636 24.9794 13.5341 25.0062C13.5111 25.0264 13.4902 25.0482 13.4685 25.0702C13.4402 25.0984 13.4131 25.1284 13.3877 25.1583C13.3681 25.1814 13.3492 25.2053 13.3313 25.2292C13.3073 25.2611 13.2842 25.2942 13.2628 25.3282C13.2463 25.3532 13.2308 25.3781 13.2158 25.4042C13.1958 25.4391 13.1779 25.4751 13.1604 25.512C13.1479 25.5379 13.1348 25.565 13.1239 25.592C13.1079 25.631 13.0949 25.6709 13.082 25.711C13.0734 25.7369 13.064 25.7629 13.0564 25.7899C13.0445 25.8349 13.0365 25.8809 13.028 25.9268C13.0241 25.9508 13.0181 25.9738 13.015 25.9978C13.0055 26.0677 13 26.1386 13 26.2106V37.7887C13 37.8606 13.0054 37.9316 13.015 38.0026C13.0181 38.0257 13.0241 38.0496 13.028 38.0724C13.0365 38.1184 13.0445 38.1644 13.0564 38.2094C13.064 38.2364 13.0734 38.2625 13.082 38.2884C13.0949 38.3282 13.1079 38.3683 13.1239 38.4082C13.1348 38.4355 13.1479 38.4615 13.1604 38.4875C13.178 38.5244 13.1959 38.5603 13.2158 38.5963C13.2308 38.6214 13.2463 38.6462 13.2628 38.6713C13.2842 38.7052 13.3073 38.7383 13.3313 38.7703C13.3492 38.7953 13.3683 38.8184 13.3877 38.8413C13.4132 38.8711 13.4402 38.9012 13.4685 38.9293C13.4901 38.9511 13.5111 38.9731 13.5341 38.9932C13.5636 39.0203 13.5945 39.0463 13.6265 39.0712C13.6505 39.0903 13.6746 39.1093 13.7 39.127C13.7095 39.1332 13.7179 39.1412 13.7269 39.1471L31.0941 50.7252C31.3683 50.9079 31.6843 51 32.0001 51C32.3155 51 32.6312 50.9079 32.9057 50.7252L50.2728 39.1471C50.2819 39.1412 50.2903 39.1332 50.2999 39.127C50.3253 39.1092 50.3494 39.0903 50.3739 39.0712C50.4053 39.0463 50.4363 39.0203 50.4663 38.9932C50.4888 38.9733 50.5098 38.9511 50.5312 38.9293C50.5597 38.9012 50.5868 38.8711 50.6128 38.8413C50.6317 38.8183 50.6507 38.7953 50.6686 38.7703C50.6932 38.7383 50.7157 38.7053 50.7377 38.6713C50.7532 38.6462 50.769 38.6214 50.784 38.5963C50.8046 38.5603 50.8224 38.5244 50.8396 38.4875C50.852 38.4615 50.8649 38.4355 50.8761 38.4082C50.8921 38.3684 50.905 38.3283 50.9181 38.2884C50.9265 38.2625 50.9365 38.2364 50.9435 38.2094C50.9555 38.1644 50.964 38.1184 50.972 38.0724C50.976 38.0494 50.9819 38.0256 50.9854 38.0026C50.9943 37.9316 51 37.8606 51 37.7887V26.2106C51 26.1387 50.9943 26.0678 50.9854 25.9979ZM33.6329 17.6841L46.4267 26.2127L40.7121 30.0357L33.6329 25.3002V17.6841V17.6841ZM30.3669 17.6841V25.3002L23.288 30.0357L17.5729 26.2127L30.3669 17.6841ZM16.2656 29.2673L20.351 31.9998L16.2656 34.7325V29.2673V29.2673ZM30.3669 46.3154L17.573 37.7867L23.2882 33.9648L30.367 38.6994V46.3154H30.3669ZM31.9999 35.8628L26.2245 31.9998L31.9999 28.1368L37.7751 31.9998L31.9999 35.8628ZM33.6329 46.3154V38.6994L40.7121 33.9648L46.4267 37.7867L33.6329 46.3154ZM47.7341 34.7324L43.6492 31.9996L47.7341 29.2671V34.7324Z" fill="#4F4F4F"/>
</svg>
