
<svg width="36px" height="32px" viewBox="0 0 36 32" version="1.1" xmlns="http://www.w3.org/2000/svg" xmlns:xlink="http://www.w3.org/1999/xlink">
    <!-- Generator: Sketch 50.2 (55047) - http://www.bohemiancoding.com/sketch -->
    <desc>Created with Sketch.</desc>
    <defs></defs>
    <g id="Mobile" stroke="none" stroke-width="1" fill="none" fill-rule="evenodd">
        <g id="iPhone-8-Copy" transform="translate(-295.000000, -94.000000)" fill="#FBFAEE">
            <g id="Group-3" transform="translate(266.000000, 60.000000)">
                <g id="message-ryASoSjCf" transform="translate(29.000000, 34.000000)">
                    <path d="M11.4895636,0 C9.83183606,0 8.50094877,1.33088729 8.50094877,2.9886148 L8.50094877,4.25047438 L23.3643264,4.25047438 C25.9320244,4.25047438 28.0531309,6.37158012 28.0531309,8.93927894 L28.0531309,20.8140418 C28.0531309,21.4415121 27.923398,22.0442285 27.6944971,22.5939279 L31.4535104,26.3529412 L31.4535104,18.7020873 L32.71537,18.7020873 C34.3730975,18.7020873 35.7039848,17.3712 35.7039848,15.7134725 L35.7039848,2.9886148 C35.7039848,1.33088729 34.3730975,0 32.71537,0 L11.4895636,0 Z M2.9886148,5.95066413 C1.33088729,5.95066413 0,7.28155142 0,8.93927894 L0,20.8140418 C0,22.4717692 1.33088729,23.8026566 2.9886148,23.8026566 L4.25047438,23.8026566 L4.25047438,31.4535105 L11.9013283,23.8026566 L23.3643264,23.8026566 C25.0220539,23.8026566 26.3529412,22.4717692 26.3529412,20.8140418 L26.3529412,8.93927894 C26.3529412,7.28155142 25.0220539,5.95066413 23.3643264,5.95066413 L2.9886148,5.95066413 Z M5.5256167,11.4762808 L20.8273245,11.4762808 C21.2982771,11.4762808 21.6774194,11.8554231 21.6774194,12.3263757 C21.6774194,12.7973283 21.2982771,13.1764706 20.8273245,13.1764706 L5.5256167,13.1764706 C5.05466413,13.1764706 4.67552182,12.7973283 4.67552182,12.3263757 C4.67552182,11.8554231 5.05466413,11.4762808 5.5256167,11.4762808 Z M5.5256167,16.5768501 L13.1764706,16.5768501 C13.6474232,16.5768501 14.0265655,16.9559924 14.0265655,17.426945 C14.0265655,17.8978976 13.6474232,18.2770399 13.1764706,18.2770399 L5.5256167,18.2770399 C5.05466413,18.2770399 4.67552182,17.8978976 4.67552182,17.426945 C4.67552182,16.9559924 5.05466413,16.5768501 5.5256167,16.5768501 Z" id="Shape"></path>
                </g>
            </g>
        </g>
    </g>
</svg>