
<svg width="62px" height="22px" viewBox="0 0 62 22" version="1.1" xmlns="http://www.w3.org/2000/svg" xmlns:xlink="http://www.w3.org/1999/xlink">
    <!-- Generator: Sketch 50.2 (55047) - http://www.bohemiancoding.com/sketch -->
    <desc>Created with Sketch.</desc>
    <defs></defs>
    <g id="Mobile" stroke="none" stroke-width="1" fill="none" fill-rule="evenodd">
        <g id="Scratch" transform="translate(-150.000000, -61.000000)" fill="#3D9F5E" fill-rule="nonzero">
            <g id="Design" transform="translate(150.646777, 60.846101)">
                <path d="M0.0121326269,1.07202949 L4.42202322,1.07202949 C6.29874902,1.07202949 7.62759095,1.59283846 8.40854898,2.63452026 C9.18950702,3.65959952 9.57966676,5.06500471 9.57966676,6.85073581 L9.57966676,15.1839348 C9.57966676,17.0688342 9.19780829,18.5403941 8.4334528,19.5986146 C7.68569984,20.6402325 6.39006301,21.1611054 4.54654228,21.1611054 L0.0121326269,21.1611054 L0.0121326269,1.07202949 Z M4.47183084,20.0946475 C5.50182701,20.0946475 6.29044775,19.8797084 6.8389702,19.4497664 C7.38685409,19.0033496 7.75211001,18.4163859 7.93537653,17.6888753 C8.1180045,16.9613646 8.20931848,16.0768323 8.20931848,15.0351505 L8.20931848,6.94990407 C8.20931848,5.34609851 7.93537653,4.14739498 7.38685409,3.35372961 C6.85557274,2.56006425 5.86708293,2.16326349 4.42202322,2.16326349 L1.35757709,2.16326349 L1.35757709,20.0946475 L4.47183084,20.0946475 Z" id="path10_fill"></path>
                <polygon id="path11_fill" points="13.3753484 1.07202949 20.8166929 1.07202949 20.8166929 2.16326349 14.8370533 2.16326349 14.8370533 10.2236699 19.7534491 10.2236699 19.7534491 11.2653517 14.8370533 11.2653517 14.8370533 20.0946475 20.8963851 20.0946475 20.8963851 21.1611054 13.3753484 21.1611054"></polygon>
                <path d="M27.267402,21.4086713 C24.4131952,21.4086713 22.8585842,19.6409905 22.6035692,16.105694 L23.7278422,15.7269053 C23.9191035,17.2419952 24.26178,18.3783614 24.7558716,19.1359389 C25.2665147,19.8935164 26.1118651,20.2723051 27.2913097,20.2723051 C29.3485945,20.2723051 30.3772369,19.1780049 30.3772369,16.9895344 C30.3772369,16.14776 30.1780064,15.3817953 29.7789324,14.6915754 C29.3804714,14.0012904 28.7429338,13.1932598 27.8657066,12.2673535 L24.3255337,8.55527585 C23.1932915,7.36000428 22.6274768,6.06369637 22.6274768,4.66641715 C22.6274768,3.33643046 23.0099994,2.30955279 23.7756576,1.58565409 C24.5566411,0.861755393 25.5932528,0.491353841 26.8848795,0.474514451 C28.2721368,0.474514451 29.3406253,0.870142579 30.090345,1.66139883 C30.8394517,2.4358157 31.2697896,3.74889798 31.3819717,5.60071069 L30.2816063,5.8785281 C30.1700372,4.41389132 29.8665938,3.33643046 29.3725022,2.64621054 C28.8784105,1.93915124 28.0968139,1.58565409 27.0283254,1.58565409 C26.0554675,1.58565409 25.274484,1.82972771 24.6841487,2.31793997 C24.1103648,2.80615223 23.8234729,3.55527751 23.8234729,4.56538081 C23.8234729,5.10411124 23.9270727,5.61755008 24.1342725,6.10576234 C24.3574106,6.5939746 24.7239948,7.11586564 25.2346379,7.67143546 L28.7269954,11.3077683 C29.619548,12.2336747 30.3214524,13.1511939 30.8314825,14.0602608 C31.3421256,14.9693278 31.5971406,15.9204607 31.5971406,16.9137246 C31.5971406,18.3952008 31.2060358,19.5147276 30.4250523,20.2723051 C29.6434557,21.0298826 28.5909056,21.4086713 27.267402,21.4086713 Z" id="path12_fill"></path>
                <polygon id="path13_fill" points="34.8568242 1.07202949 36.2919649 1.07202949 36.2919649 21.1611054 34.8568242 21.1611054"></polygon>
                <path d="M43.9852423,21.4338979 C42.1908907,21.4338979 40.9367602,20.8951675 40.2228509,19.8177716 C39.508303,18.7403108 39.1513484,17.2083814 39.1513484,15.2218536 L39.1513484,6.53506924 C39.1513484,4.5822202 39.508303,3.08390464 40.2228509,2.04018757 C40.9533627,0.996405492 42.232397,0.474514451 44.0599538,0.474514451 C45.7374491,0.474514451 46.9334707,0.971178916 47.64738,1.96444283 C48.3619278,2.95764172 48.7188825,4.40543912 48.7188825,6.30776999 L48.7188825,7.01489432 L47.4232456,7.01489432 L47.4232456,6.23202525 C47.4232456,4.64957776 47.1742075,3.48798497 46.6761313,2.74724688 C46.194019,1.9896694 45.3223855,1.61088067 44.0599538,1.61088067 C42.6813042,1.61088067 41.742622,2.02334818 41.2445458,2.8482182 C40.7624335,3.67315323 40.5216966,4.88526419 40.5216966,6.48455108 L40.5216966,15.3986347 C40.5216966,17.014761 40.779036,18.2352591 41.2943534,19.0601941 C41.8090322,19.8850642 42.7394131,20.2975317 44.0848576,20.2975317 C45.3472893,20.2975317 46.2272241,19.9019035 46.7259389,19.1107123 C47.2240151,18.3026167 47.4730533,17.0905057 47.4730533,15.4743794 L47.4730533,12.4693611 L44.2591843,12.4693611 L44.2591843,11.4087397 L48.7437863,11.4087397 L48.7437863,21.1561455 L47.8721528,21.1561455 L47.6722838,18.8581865 C47.4066431,19.6998959 46.974977,20.3396627 46.3766469,20.7773568 C45.795558,21.2150508 44.9979974,21.4338979 43.9852423,21.4338979 Z" id="path14_fill"></path>
                <polygon id="path15_fill" points="52.1468987 1.07202949 53.1749281 1.07202949 59.7525999 18.0361238 59.7525999 1.07202949 60.9007806 1.07202949 60.9007806 21.1611054 59.8727512 21.1611054 53.2950795 4.17217108 53.2950795 21.1611054 52.1468987 21.1611054"></polygon>
            </g>
        </g>
    </g>
</svg>