
<svg width="26px" height="24px" viewBox="0 0 26 24" version="1.1" xmlns="http://www.w3.org/2000/svg" xmlns:xlink="http://www.w3.org/1999/xlink">
    <!-- Generator: Sketch 50.2 (55047) - http://www.bohemiancoding.com/sketch -->
    <desc>Created with Sketch.</desc>
    <defs></defs>
    <g id="Mobile" stroke="none" stroke-width="1" fill="none" fill-rule="evenodd">
        <g id="iPhone-8" transform="translate(-334.000000, -630.000000)" fill="#FBFAEE">
            <path d="M346.96922,630 C340.175927,630 334.666667,635.508505 334.666667,642.304064 C334.666667,647.740059 338.191717,652.35125 343.080864,653.978196 C343.696445,654.091494 343.920773,653.711571 343.920773,653.385275 C343.920773,653.093724 343.910199,652.319527 343.904156,651.293055 C340.481829,652.036284 339.759749,649.64345 339.759749,649.64345 C339.200061,648.221949 338.393386,647.843537 338.393386,647.843537 C337.276276,647.08067 338.477981,647.095776 338.477981,647.095776 C339.712919,647.182637 340.362489,648.363948 340.362489,648.363948 C341.45996,650.243924 343.242501,649.700854 343.943433,649.385888 C344.055219,648.591297 344.373206,648.048982 344.724427,647.741569 C341.992457,647.431135 339.119998,646.375206 339.119998,641.660537 C339.119998,640.317588 339.599622,639.218607 340.386659,638.359059 C340.259766,638.04787 339.837546,636.796315 340.507509,635.102901 C340.507509,635.102901 341.540024,634.772074 343.890561,636.364275 C344.871713,636.090852 345.924621,635.954895 346.970731,635.949608 C348.016085,635.954895 349.068238,636.090852 350.050901,636.364275 C352.399927,634.772074 353.430931,635.102901 353.430931,635.102901 C354.102405,636.796315 353.680185,638.04787 353.554047,638.359059 C354.342595,639.218607 354.818443,640.317588 354.818443,641.660537 C354.818443,646.387291 351.941452,647.427359 349.201173,647.73175 C349.642276,648.111673 350.035795,648.862455 350.035795,650.010532 C350.035795,651.654851 350.020689,652.981937 350.020689,653.385275 C350.020689,653.714592 350.242751,654.097536 350.86664,653.977441 C355.752011,652.346718 359.27404,647.738548 359.27404,642.304064 C359.27404,635.508505 353.76478,630 346.96922,630" id="Github"></path>
        </g>
    </g>
</svg>