<svg width="64" height="64" viewBox="0 0 64 64" fill="none" xmlns="http://www.w3.org/2000/svg">
<rect width="64" height="64" fill="black" fill-opacity="0"/>
<circle cx="32" cy="32" r="32" fill="#C4C4C4"/>
<rect width="41" height="40" fill="black" fill-opacity="0" transform="translate(12 12)"/>
<rect width="41" height="40" fill="black" fill-opacity="0" transform="translate(12 12)"/>
<path d="M50.2501 22.2107C48.4169 19.0695 45.9303 16.5827 42.7897 14.7496C39.6486 12.9164 36.2194 12 32.4998 12C28.7807 12 25.3504 12.9167 22.2099 14.7496C19.069 16.5826 16.5825 19.0695 14.7494 22.2107C12.9165 25.3517 12 28.7818 12 32.5008C12 36.9681 13.3033 40.9852 15.9104 44.5532C18.5173 48.1214 21.8851 50.5905 26.0133 51.9607C26.4939 52.0499 26.8496 51.9871 27.0809 51.7741C27.3123 51.5607 27.4278 51.2935 27.4278 50.9735C27.4278 50.9202 27.4233 50.4399 27.4144 49.5321C27.4052 48.6243 27.4009 47.8324 27.4009 47.1567L26.787 47.2629C26.3955 47.3346 25.9017 47.365 25.3055 47.3564C24.7096 47.3481 24.091 47.2856 23.4505 47.1695C22.8097 47.0544 22.2137 46.7875 21.662 46.3692C21.1106 45.951 20.7191 45.4036 20.4877 44.7278L20.2208 44.1135C20.0429 43.7046 19.7628 43.2503 19.3802 42.7523C18.9975 42.2539 18.6105 41.916 18.2191 41.738L18.0322 41.6042C17.9077 41.5153 17.7921 41.4081 17.6853 41.2836C17.5785 41.1592 17.4986 41.0347 17.4452 40.9099C17.3917 40.7851 17.436 40.6827 17.5786 40.6024C17.7212 40.5221 17.9788 40.4831 18.3527 40.4831L18.8863 40.5629C19.2423 40.6342 19.6825 40.8473 20.2076 41.2034C20.7325 41.5593 21.164 42.0219 21.5021 42.5911C21.9116 43.3209 22.405 43.8771 22.9836 44.2598C23.5617 44.6424 24.1446 44.8335 24.7318 44.8335C25.3189 44.8335 25.826 44.789 26.2532 44.7004C26.68 44.6114 27.0804 44.4776 27.4543 44.2998C27.6145 43.1069 28.0505 42.1906 28.7621 41.55C27.7479 41.4434 26.836 41.2829 26.0261 41.0694C25.2167 40.8557 24.3802 40.5088 23.5173 40.0279C22.6539 39.5476 21.9377 38.9512 21.3684 38.2396C20.7991 37.5277 20.3318 36.5931 19.9673 35.4367C19.6026 34.2797 19.4202 32.9451 19.4202 31.4325C19.4202 29.2788 20.1232 27.4461 21.529 25.9333C20.8705 24.3141 20.9327 22.4989 21.7157 20.488C22.2318 20.3276 22.9971 20.448 24.0113 20.8482C25.0257 21.2487 25.7684 21.5917 26.2401 21.8762C26.7119 22.1605 27.0899 22.4014 27.3747 22.5968C29.0299 22.1343 30.7381 21.903 32.4996 21.903C34.2612 21.903 35.9697 22.1343 37.6251 22.5968L38.6394 21.9565C39.333 21.5292 40.152 21.1376 41.0946 20.7817C42.0377 20.4259 42.7589 20.3279 43.2574 20.4883C44.0579 22.4993 44.1292 24.3144 43.4705 25.9336C44.8762 27.4464 45.5795 29.2796 45.5795 31.4328C45.5795 32.9454 45.3965 34.2842 45.0323 35.45C44.6677 36.616 44.1964 37.5497 43.6183 38.253C43.0395 38.9562 42.3187 39.5479 41.4558 40.0282C40.5927 40.5087 39.7559 40.8556 38.9465 41.0693C38.1367 41.2831 37.2248 41.4437 36.2107 41.5505C37.1356 42.351 37.5982 43.6146 37.5982 45.3408V50.9728C37.5982 51.2927 37.7095 51.5599 37.9322 51.7733C38.1546 51.9864 38.5058 52.0491 38.9864 51.9598C43.1152 50.5898 46.4829 48.1206 49.0898 44.5524C51.6963 40.9844 53 36.9673 53 32.5C52.9991 28.7815 52.0821 25.3517 50.2501 22.2107Z" fill="#4F4F4F"/>
</svg>
