<svg width="32" height="32" viewBox="0 0 32 32" fill="none" xmlns="http://www.w3.org/2000/svg">
<path d="M27.1465 20.0714V30.2857C27.1465 30.7619 27.0167 31.1667 26.7571 31.5C26.4975 31.8333 26.1822 32 25.8114 32H19.3585C19.1731 32 19.0062 31.9048 18.8579 31.7143C18.7466 31.5714 18.691 31.381 18.691 31.1429V23.1429C18.691 22.9048 18.6168 22.7143 18.4685 22.5714C18.3572 22.381 18.2089 22.2857 18.0235 22.2857H14.0183C13.8328 22.2857 13.6659 22.381 13.5176 22.5714C13.4063 22.7143 13.3507 22.9048 13.3507 23.1429V31.1429C13.3507 31.381 13.2765 31.5714 13.1282 31.7143C13.0169 31.9048 12.8686 32 12.6832 32H6.23033C5.85948 32 5.54426 31.8333 5.28466 31.5C5.02506 31.1667 4.89526 30.7619 4.89526 30.2857V20.0714C4.89526 19.7857 4.96943 19.5476 5.11777 19.3571L15.5758 8.35714C15.7242 8.21429 15.8725 8.14286 16.0209 8.14286C16.1692 8.14286 16.3175 8.21429 16.4659 8.35714L26.9239 19.3571C27.0723 19.5476 27.1465 19.7857 27.1465 20.0714ZM31.8192 15.7143L27.1465 10.7857V0.857143C27.1465 0.619048 27.0723 0.428571 26.9239 0.285714C26.8127 0.0952381 26.6643 0 26.4789 0H23.3638C23.1783 0 23.0114 0.0952381 22.8631 0.285714C22.7518 0.428571 22.6962 0.619048 22.6962 0.857143V6.07143L17.7453 0.785714C17.2261 0.261905 16.6513 0 16.0209 0C15.3904 0 14.8341 0.261905 14.352 0.785714L0.222512 15.7143C0.111256 15.8571 0.0370853 16.0476 0 16.2857C0 16.5238 0.055628 16.7381 0.166884 16.9286L1.55758 19.1429C1.66884 19.3333 1.81718 19.4286 2.00261 19.4286C2.18803 19.4286 2.35492 19.3571 2.50326 19.2143L15.5758 5.42857C15.7242 5.28571 15.8725 5.21429 16.0209 5.21429C16.1692 5.21429 16.3175 5.28571 16.4659 5.42857L29.5385 19.2143C29.6868 19.3571 29.8537 19.4286 30.0391 19.4286C30.2245 19.4286 30.3729 19.3333 30.4841 19.1429L31.8748 16.9286C31.9861 16.7381 32.0232 16.5238 31.9861 16.2857C31.9861 16.0476 31.9305 15.8571 31.8192 15.7143Z" fill="#219653"/>
</svg>
