<svg width="26" height="26" viewBox="0 0 26 26" fill="none" xmlns="http://www.w3.org/2000/svg">
<rect width="26" height="26" fill="black" fill-opacity="0"/>
<rect width="26" height="26" fill="black" fill-opacity="0"/>
<path d="M12.3125 9.96492e-06C10.4258 0.00391621 10.5664 0.507823 11.5625 1.50001L14.7812 4.71876L9.25 10.25C8.10547 11.3945 8.10547 13.2305 9.25 14.375L11.6875 16.7813C12.832 17.9219 14.668 17.9258 15.8125 16.7813L21.3438 11.2813L24.5 14.4375C25.6016 15.5391 26 15.5742 26 13.6875V3.40626C26 -0.03124 26.0352 9.96492e-06 22.5938 9.96492e-06H12.3125ZM4.875 5.00001C2.18359 5.00001 0 7.1836 0 9.87501V21.125C0 23.8164 2.18359 26 4.875 26H16.125C18.8164 26 21 23.8164 21 21.125V14.75L18 17.75V21.125C18 22.1602 17.1602 23 16.125 23H4.875C3.83984 23 3 22.1602 3 21.125V9.87501C3 8.83985 3.83984 8.00001 4.875 8.00001H8.3125L11.3125 5.00001H4.875Z" fill="#219653"/>
</svg>
