<svg width="64" height="64" viewBox="0 0 64 64" fill="none" xmlns="http://www.w3.org/2000/svg">
<rect width="64" height="64" fill="black" fill-opacity="0"/>
<circle cx="32" cy="32" r="32" fill="#C4C4C4"/>
<rect width="35" height="33" fill="black" fill-opacity="0" transform="translate(15 16)"/>
<rect width="35" height="33" fill="black" fill-opacity="0" transform="translate(15 16)"/>
<path d="M50 36.2323V49H42.4984V37.0874C42.4984 34.0948 41.4133 32.0525 38.698 32.0525C36.6252 32.0525 35.3916 33.4289 34.849 34.7603C34.6511 35.2363 34.6001 35.8987 34.6001 36.565V49H27.096C27.096 49 27.197 28.8239 27.096 26.7335H34.5994V29.8897C34.5842 29.9133 34.5644 29.9388 34.5501 29.9617H34.5994V29.8897C35.5963 28.3747 37.3767 26.2104 41.3617 26.2104C46.2988 26.2104 50 29.3929 50 36.2323ZM19.2463 16C16.6791 16 15 17.6615 15 19.8464C15 21.9837 16.6306 23.6955 19.1467 23.6955H19.1968C21.8137 23.6955 23.4412 21.984 23.4412 19.8464C23.3919 17.6615 21.8137 16 19.2463 16ZM15.4457 49H22.947V26.7335H15.4457V49Z" fill="#4F4F4F"/>
</svg>
