
<svg width="24px" height="24px" viewBox="0 0 24 24" version="1.1" xmlns="http://www.w3.org/2000/svg" xmlns:xlink="http://www.w3.org/1999/xlink">
    <!-- Generator: Sketch 50.2 (55047) - http://www.bohemiancoding.com/sketch -->
    <desc>Created with Sketch.</desc>
    <defs></defs>
    <g id="Mobile" stroke="none" stroke-width="1" fill="none" fill-rule="evenodd">
        <g id="iPhone-8-Plus" transform="translate(-252.000000, -695.000000)">
            <g id="Group-4" transform="translate(252.000000, 695.000000)">
                <circle id="Oval-2" fill="#FBFAEE" cx="12" cy="12" r="12"></circle>
                <path d="M18.6048364,13.9713049 L18.6048364,19 L15.6877198,19 L15.6877198,14.3057602 C15.6877198,13.1255354 15.2671113,12.3234115 14.2115923,12.3234115 C13.4043755,12.3234115 12.9281998,12.8664783 12.7156336,13.3891164 C12.6390972,13.5773275 12.6158518,13.8409085 12.6158518,14.1011037 L12.6158518,18.9994025 L9.70160886,18.9994025 C9.70160886,18.9994025 9.74073061,11.0519121 9.70160886,10.228819 L12.6164493,10.228819 L12.6164493,11.4719516 C12.6124945,11.4821659 12.6039872,11.4906447 12.6000039,11.5019971 L12.6164493,11.5019971 L12.6164493,11.4719516 C13.0058743,10.8744843 13.6957543,10.0230244 15.2450039,10.0230244 C17.1678307,10.0230528 18.6048364,11.2763998 18.6048364,13.9713049 Z M6.65014106,6 C5.65303443,6 5,6.65417251 5,7.51695641 C5,8.35649486 5.6337723,9.03277472 6.61272644,9.03277472 L6.63030989,9.03277472 C7.64952387,9.03277472 8.28101999,8.35649486 8.28101999,7.51695641 C8.26118882,6.65417251 7.64955232,6 6.65014106,6 Z M5.17404198,18.9999716 L8.08945147,18.9999716 L8.08945147,10.2282784 L5.17404198,10.2282784 L5.17404198,18.9999716 Z" id="Shape" fill="#58645C"></path>
            </g>
        </g>
    </g>
</svg>