<svg width="64" height="64" viewBox="0 0 64 64" fill="none" xmlns="http://www.w3.org/2000/svg">
<rect width="64" height="64" fill="black" fill-opacity="0"/>
<circle cx="32" cy="32" r="32" fill="#C4C4C4"/>
<rect width="36" height="39" fill="black" fill-opacity="0" transform="translate(14 12)"/>
<path fill-rule="evenodd" clip-rule="evenodd" d="M39.6582 41.7255C44.494 41.142 48.7045 38.1312 49.2336 35.3801C50.0674 31.0464 49.9987 24.8043 49.9987 24.8043C49.9987 16.344 44.5133 13.8642 44.5133 13.8642C41.7476 12.5806 36.9983 12.0408 32.0643 12H31.943C27.009 12.0408 22.2628 12.5806 19.4969 13.8642C19.4969 13.8642 14.0114 16.344 14.0114 24.8043C14.0114 25.3169 14.0088 25.8561 14.0061 26.4174C13.9984 27.9773 13.9901 29.708 14.0347 31.5145C14.2339 39.7882 15.5358 47.9424 23.1058 49.9671C26.5962 50.9007 29.593 51.0961 32.0065 50.962C36.3833 50.7168 38.8402 49.3836 38.8402 49.3836L38.6959 46.1746C38.6959 46.1746 35.5682 47.1712 32.0555 47.0498C28.5753 46.9292 24.9014 46.6705 24.3385 42.3527C24.2865 41.9735 24.2605 41.5679 24.2605 41.142C24.2605 41.142 27.6769 41.9859 32.0065 42.1863C34.6539 42.309 37.1366 42.0296 39.6582 41.7255ZM43.5283 35.7047V25.4607C43.5283 23.367 43.0007 21.7033 41.9413 20.4724C40.8484 19.2415 39.4174 18.6105 37.6412 18.6105C35.5858 18.6105 34.0294 19.4088 33.0006 21.0055L32 22.7001L30.9996 21.0055C29.9706 19.4088 28.4142 18.6105 26.3589 18.6105C24.5825 18.6105 23.1515 19.2415 22.0588 20.4724C20.9993 21.7033 20.4717 23.367 20.4717 25.4607V35.7047H24.4879V25.7618C24.4879 23.6658 25.3606 22.602 27.1062 22.602C29.0363 22.602 30.0038 23.8639 30.0038 26.3593V31.8017H33.9963V26.3593C33.9963 23.8639 34.9636 22.602 36.8937 22.602C38.6393 22.602 39.5121 23.6658 39.5121 25.7618V35.7047H43.5283Z" fill="#4F4F4F"/>
</svg>
