
<svg width="188px" height="33px" viewBox="0 0 188 33" version="1.1" xmlns="http://www.w3.org/2000/svg" xmlns:xlink="http://www.w3.org/1999/xlink">
    <!-- Generator: Sketch 50.2 (55047) - http://www.bohemiancoding.com/sketch -->
    <desc>Created with Sketch.</desc>
    <defs></defs>
    <g id="Mobile" stroke="none" stroke-width="1" fill="none" fill-rule="evenodd">
        <g id="Scratch" transform="translate(-26.000000, -23.000000)" fill="#3D9F5E" fill-rule="nonzero">
            <g id="Rob-Lindsey" transform="translate(26.000000, 23.000000)">
                <path d="M0,0.269562469 L6.2589155,0.269562469 C9.40757797,0.269562469 11.7114528,0.924211102 13.1706217,2.23351597 C14.6553173,3.51714708 15.3976651,5.62230057 15.3976651,8.54898912 C15.3976651,12.5539187 14.1177486,14.979972 11.5578528,15.8271492 L15.9736495,31.4617926 L11.7882843,31.4617926 L7.71804042,16.8283816 L4.33900304,16.8283816 L4.33900304,31.4617926 L0,31.4617926 L0,0.269562469 Z M5.99012486,13.709143 C7.85881426,13.709143 9.18997267,13.3369273 9.98356239,12.5924325 C10.8026788,11.8478744 11.2122998,10.500081 11.2122998,8.54898912 C11.2122998,7.26536435 11.0714631,6.26411296 10.7899154,5.54527928 C10.5083049,4.80077818 10.0091519,4.26164818 9.29239366,3.92790827 C8.57563539,3.56848827 7.56444038,3.3887846 6.2589155,3.3887846 L4.33900304,3.3887846 L4.33900304,13.709143 L5.99012486,13.709143 Z" id="path0_fill"></path>
                <path d="M28.8118544,32.1906172 C25.629574,32.1906172 23.3431741,31.3202453 21.9526546,29.5795016 C20.5888014,27.8127948 19.9069077,25.2666189 19.9069077,21.9410381 L19.9069077,9.97674247 C19.9069077,6.70315189 20.6022002,4.22193499 21.9927197,2.53316228 C23.3833048,0.844389562 25.6563716,0 28.8118544,0 C31.9674029,0 34.2270709,0.857377508 35.5908584,2.57213252 C36.9814436,4.26090524 37.6767361,6.72911496 37.6767361,9.97674247 L37.6767361,21.9800148 C37.6767361,25.2536694 36.9814436,27.7738181 35.5908584,29.5405249 C34.2002733,31.3072317 31.9406053,32.1906172 28.8118544,32.1906172 Z M28.8118544,28.7221433 C30.4965563,28.7221433 31.6330897,28.2414739 32.2213889,27.2801993 C32.8097538,26.3188605 33.1038706,24.8639028 33.1038706,22.9153263 L33.1038706,9.08040753 C33.1038706,7.1577941 32.8097538,5.74182594 32.2213889,4.83249024 C31.6330897,3.89716583 30.4965563,3.42951003 28.8118544,3.42951003 C27.1004206,3.42951003 25.9504884,3.89716583 25.3621892,4.83249024 C24.77389,5.74182594 24.4797075,7.1577941 24.4797075,9.08040753 L24.4797075,22.9153263 C24.4797075,24.8639028 24.77389,26.3188605 25.3621892,27.2801993 C25.9504884,28.2414739 27.1004206,28.7221433 28.8118544,28.7221433 Z" id="path1_fill"></path>
                <path d="M41.2479798,0.269562469 L48.5553612,0.269562469 C51.436397,0.269562469 53.5710241,0.911377388 54.9591783,2.19500849 C56.3473324,3.45296584 57.0413773,5.41691681 57.0413773,8.08688674 C57.0413773,12.0660982 55.5223138,14.261132 52.4840581,14.6718615 C54.3698609,15.1083092 55.7448919,15.9812044 56.6092155,17.2904839 C57.4735391,18.5741087 57.9057009,20.3326949 57.9057009,22.5662426 C57.9057009,25.3645116 57.2247148,27.5466864 55.8627425,29.1127036 C54.5270165,30.6787207 52.4840581,31.4617926 49.733996,31.4617926 L41.2479798,31.4617926 L41.2479798,0.269562469 Z M48.3196599,13.2855544 C50.1530347,13.2855544 51.4233382,12.9004796 52.1305062,12.1303301 C52.8376742,11.3344625 53.1912261,9.98666913 53.1912261,8.08688674 C53.1912261,6.70051624 52.9686479,5.68648181 52.523363,5.04466309 C52.1043243,4.37717694 51.4626432,3.95358203 50.5983196,3.77387203 C49.733996,3.59416203 48.4506337,3.50430703 46.7481683,3.50430703 L45.6873841,3.50430703 L45.6873841,13.2855544 L48.3196599,13.2855544 Z M48.6732118,28.342554 C49.9828203,28.342554 50.9911764,28.149985 51.6983444,27.7649102 C52.4316943,27.3541807 52.9424017,26.7380231 53.2305311,25.9165007 C53.5186604,25.0949783 53.6626929,23.9782045 53.6626929,22.5662426 C53.6626929,20.5637778 53.2436542,19.0747249 52.4055124,18.0992106 C51.5673707,17.0979782 50.2053984,16.597362 48.3196599,16.597362 L45.6873841,16.597362 L45.6873841,28.342554 L48.6732118,28.342554 Z" id="path2_fill"></path>
                <polygon id="path3_fill" points="70.85999 0.269562469 75.2247192 0.269562469 75.2247192 28.342554 83.2205035 28.342554 83.2205035 31.4617926 70.85999 31.4617926"></polygon>
                <polygon id="path4_fill" points="86.9690047 0.269562469 90.9267588 0.269562469 90.9267588 31.4617926 86.9690047 31.4617926"></polygon>
                <polygon id="path5_fill" points="96.6661692 0.269562469 99.6224827 0.269562469 108.454328 20.9873664 108.454328 0.269562469 112.063897 0.269562469 112.063897 31.4617926 109.298719 31.4617926 100.352444 10.1663791 100.352444 31.4617926 96.6661692 31.4617926"></polygon>
                <path d="M116.637947,0.269562469 L123.396223,0.269562469 C126.749897,0.269562469 129.117714,1.03973987 130.499674,2.58009593 C131.908041,4.12045199 132.611596,6.52086958 132.611596,9.78124103 L132.611596,21.2568997 C132.611596,24.6970445 131.920616,27.264294 130.538027,28.9587117 C129.181845,30.6274112 126.915883,31.4617926 123.742027,31.4617926 L116.637947,31.4617926 L116.637947,0.269562469 Z M123.434575,28.342554 C124.944798,28.342554 126.033139,28.0473026 126.69834,27.4568631 C127.389949,26.8663602 127.811831,26.0704926 127.965871,25.0692602 C128.14506,24.042373 128.234341,22.5020107 128.234341,20.4482364 L128.234341,10.320371 C128.234341,8.54898912 128.119282,7.20113243 127.888536,6.27694667 C127.684197,5.3270618 127.235909,4.63390189 126.544929,4.19746694 C125.853949,3.73536455 124.778812,3.50430703 123.319517,3.50430703 L120.976849,3.50430703 L120.976849,28.342554 L123.434575,28.342554 Z" id="path6_fill"></path>
                <path d="M145.494584,32.1906172 C142.779001,32.1906172 140.702263,31.3722356 139.265024,29.7354082 C137.853941,28.0985809 137.068625,25.8512047 136.909078,22.9932797 L140.902352,21.9410381 C141.03509,23.9675679 141.434614,25.6043953 142.100268,26.8515201 C142.792732,28.0985809 143.923953,28.7221433 145.494584,28.7221433 C146.666346,28.7221433 147.544513,28.41033 148.130393,27.7868317 C148.74243,27.1373062 149.049101,26.2149441 149.049101,25.0198095 C149.049101,23.7467216 148.769239,22.69448 148.210167,21.8630848 C147.651096,21.0057265 146.759197,20.0314382 145.534471,18.94022 L140.103304,14.2636621 C139.011971,13.3023233 138.213578,12.2890584 137.707471,11.2238673 C137.228173,10.1326491 136.988851,8.82058451 136.988851,7.28767356 C136.988851,4.94940099 137.680662,3.15670547 139.065589,1.90961267 C140.449863,0.636537555 142.353322,0 144.775965,0 C147.305191,0 149.194918,0.662519857 150.446453,1.98755316 C151.697989,3.31259288 152.456495,5.365105 152.722626,8.14509594 L148.8889,9.15836085 C148.756161,7.36562687 148.409602,5.9626659 147.850531,4.94940099 C147.291459,3.91016018 146.306709,3.39053337 144.895626,3.39053337 C142.313435,3.39053337 141.022012,4.54669774 141.022012,6.85899442 C141.022012,7.79430601 141.18156,8.57377508 141.50131,9.19733751 C141.820406,9.79487276 142.3664,10.4443983 143.138637,11.145914 L148.609691,15.822472 C150.020774,17.0955599 151.138917,18.4466012 151.96412,19.8755316 C152.816131,21.2785631 153.24181,22.8763497 153.24181,24.6690837 C153.24181,26.9813996 152.523191,28.8130461 151.085299,30.1640873 C149.64806,31.5151286 147.784488,32.1906172 145.494584,32.1906172 Z" id="path7_fill"></path>
                <polygon id="path8_fill" points="156.541129 0.269562469 169.276607 0.269562469 169.276607 3.50430703 161.124759 3.50430703 161.124759 13.8246844 167.735227 13.8246844 167.735227 16.9054092 161.124759 16.9054092 161.124759 28.342554 169.357627 28.342554 169.357627 31.4617926 156.541129 31.4617926"></polygon>
                <polygon id="path9_fill" points="176.680385 20.4482364 169.660465 0.269562469 173.872548 0.269562469 178.846524 15.326533 183.739712 0.269562469 187.991861 0.269562469 181.012006 20.4482364 181.012006 31.4617926 176.680385 31.4617926"></polygon>
            </g>
        </g>
    </g>
</svg>