<svg width="32" height="32" viewBox="0 0 32 32" fill="none" xmlns="http://www.w3.org/2000/svg">
<path d="M31.5625 27.6875L25.3125 21.4375C25.0208 21.1458 24.6667 21 24.25 21H23.25C25.0833 18.6667 26 16 26 13C26 10.625 25.4167 8.45833 24.25 6.5C23.0833 4.5 21.5 2.91667 19.5 1.75C17.5417 0.583333 15.375 0 13 0C10.625 0 8.4375 0.583333 6.4375 1.75C4.47917 2.91667 2.91667 4.5 1.75 6.5C0.583333 8.45833 0 10.625 0 13C0 15.375 0.583333 17.5625 1.75 19.5625C2.91667 21.5208 4.47917 23.0833 6.4375 24.25C8.4375 25.4167 10.625 26 13 26C16 26 18.6667 25.0833 21 23.25V24.25C21 24.6667 21.1458 25.0208 21.4375 25.3125L27.6875 31.5625C27.9792 31.8542 28.3333 32 28.75 32C29.1667 32 29.5208 31.8542 29.8125 31.5625L31.5625 29.8125C31.8542 29.5208 32 29.1667 32 28.75C32 28.3333 31.8542 27.9792 31.5625 27.6875ZM13 21C11.5417 21 10.1875 20.6458 8.9375 19.9375C7.72917 19.2292 6.77083 18.2708 6.0625 17.0625C5.35417 15.8125 5 14.4583 5 13C5 11.5417 5.35417 10.2083 6.0625 9C6.77083 7.75 7.72917 6.77083 8.9375 6.0625C10.1875 5.35417 11.5417 5 13 5C14.4583 5 15.7917 5.35417 17 6.0625C18.25 6.77083 19.2292 7.75 19.9375 9C20.6458 10.2083 21 11.5417 21 13C21 14.4583 20.6458 15.8125 19.9375 17.0625C19.2292 18.2708 18.25 19.2292 17 19.9375C15.7917 20.6458 14.4583 21 13 21Z" fill="#219653"/>
</svg>
