
<svg width="24px" height="24px" viewBox="0 0 24 24" version="1.1" xmlns="http://www.w3.org/2000/svg" xmlns:xlink="http://www.w3.org/1999/xlink">
    <!-- Generator: Sketch 50.2 (55047) - http://www.bohemiancoding.com/sketch -->
    <desc>Created with Sketch.</desc>
    <defs></defs>
    <g id="Mobile" stroke="none" stroke-width="1" fill="none" fill-rule="evenodd">
        <g id="iPhone-8" transform="translate(-300.000000, -630.000000)">
            <g id="Group-2" transform="translate(300.000000, 630.000000)">
                <circle id="Oval-2" fill="#FBFAEE" cx="12" cy="12" r="12"></circle>
                <path d="M8.7350592,19.1037312 C15.3768768,19.1037312 19.0089536,13.6011968 19.0089536,8.8298368 C19.0089536,8.6734784 19.0057856,8.517824 18.9986048,8.3630144 C19.7035904,7.8533888 20.3164928,7.2174656 20.8,6.4934016 C20.1529536,6.7807744 19.4566976,6.9745152 18.7262976,7.0618112 C19.4718336,6.614912 20.0441856,5.9075328 20.3140992,5.0644224 C19.6162944,5.4780224 18.8437952,5.7788416 18.021312,5.940832 C17.3624384,5.2390144 16.4240064,4.8 15.3856064,4.8 C13.3913152,4.8 11.7741568,6.4171584 11.7741568,8.4106752 C11.7741568,8.6941056 11.8059072,8.9695808 11.8677888,9.2340032 C8.866848,9.083136 6.205728,7.6462016 4.42496,5.4613376 C4.1145664,5.9948288 3.9359616,6.614912 3.9359616,7.2761792 C3.9359616,8.5290176 4.5734336,9.6349312 5.5427712,10.2819072 C4.9505664,10.2636736 4.3940544,10.1009088 3.9073792,9.8301504 C3.9065344,9.845216 3.9065344,9.860352 3.9065344,9.876192 C3.9065344,11.6252096 5.1514176,13.0851648 6.8034944,13.416256 C6.5002816,13.4987648 6.181088,13.5432576 5.851616,13.5432576 C5.6190144,13.5432576 5.3927488,13.5202368 5.1728192,13.4781376 C5.6325312,14.9127488 6.9654848,15.9567104 8.5461056,15.9861376 C7.3100224,16.9546304 5.7531968,17.5317696 4.0614144,17.5317696 C3.7700288,17.5317696 3.482656,17.5151552 3.2,17.4817856 C4.7981504,18.5058944 6.6955712,19.1037312 8.7350592,19.1037312" id="Fill-4" fill="#58645C"></path>
            </g>
        </g>
    </g>
</svg>