<svg width="64" height="64" viewBox="0 0 64 64" fill="none" xmlns="http://www.w3.org/2000/svg">
<rect width="64" height="64" fill="black" fill-opacity="0"/>
<circle cx="32" cy="32" r="32" fill="#C4C4C4"/>
<path d="M24.8937 48C40.3654 48 48.8278 35.3028 48.8278 24.2919C48.8278 23.9312 48.8278 23.5722 48.8032 23.2148C50.4495 22.0353 51.8706 20.5748 53 18.9018C51.4648 19.5756 49.8362 20.0175 48.1686 20.2127C49.9246 19.1714 51.2388 17.5335 51.8668 15.604C50.2155 16.5746 48.4091 17.2586 46.5253 17.6265C45.257 16.2906 43.5796 15.4061 41.7527 15.1097C39.9257 14.8133 38.0511 15.1216 36.4189 15.9869C34.7866 16.8521 33.4878 18.2262 32.7234 19.8963C31.9589 21.5665 31.7715 23.4397 32.19 25.226C28.8457 25.0599 25.5739 24.199 22.5872 22.6992C19.6006 21.1994 16.9657 19.0942 14.8536 16.5202C13.7779 18.3546 13.4484 20.526 13.9323 22.5925C14.4161 24.659 15.6769 26.4652 17.4579 27.6432C16.1193 27.6039 14.8098 27.2462 13.64 26.6003C13.64 26.6344 13.64 26.6702 13.64 26.7059C13.6405 28.6297 14.3128 30.4941 15.5429 31.9828C16.7729 33.4716 18.4849 34.493 20.3886 34.8739C19.1502 35.2085 17.8508 35.2574 16.5904 35.0169C17.1279 36.6726 18.1744 38.1204 19.5835 39.1579C20.9926 40.1954 22.6938 40.7708 24.4492 40.8034C21.4706 43.1223 17.7909 44.3811 14.0024 44.3773C13.3332 44.3761 12.6645 44.3359 12 44.2571C15.8468 46.7025 20.3229 47.9995 24.8937 47.9935" fill="#4F4F4F"/>
</svg>
