<svg width="92" height="15" viewBox="0 0 92 15" fill="none" xmlns="http://www.w3.org/2000/svg">
<path d="M0 0H2.562C3.57933 0 4.30267 0.247334 4.732 0.742001C5.16133 1.22733 5.376 1.94133 5.376 2.884C5.376 3.60267 5.25933 4.19533 5.026 4.662C4.79267 5.12867 4.38667 5.42267 3.808 5.544L5.544 11.34H4.508L2.842 5.768H1.064V11.34H0V0ZM2.506 4.984C3.18733 4.984 3.66333 4.816 3.934 4.48C4.20467 4.144 4.34 3.612 4.34 2.884C4.34 2.14667 4.20933 1.61467 3.948 1.288C3.696 0.961334 3.22467 0.798001 2.534 0.798001H1.064V4.984H2.506Z" transform="translate(0.994019 0.660004)" fill="#219653"/>
<path d="M8.94239 11.466C8.13972 11.466 7.57972 11.2187 7.26239 10.724C6.94506 10.22 6.78639 9.45 6.78639 8.414V6.174C6.78639 5.138 6.94506 4.37267 7.26239 3.878C7.57972 3.374 8.13972 3.122 8.94239 3.122C9.75439 3.122 10.3191 3.374 10.6364 3.878C10.9537 4.37267 11.1124 5.138 11.1124 6.174V8.414C11.1124 9.45 10.9537 10.22 10.6364 10.724C10.3191 11.2187 9.75439 11.466 8.94239 11.466ZM8.94239 10.696C9.27839 10.696 9.52572 10.6073 9.68439 10.43C9.85239 10.2527 9.95972 10.0147 10.0064 9.716C10.0531 9.408 10.0764 8.99267 10.0764 8.47V6.118C10.0764 5.59533 10.0531 5.18467 10.0064 4.886C9.95972 4.578 9.85239 4.33533 9.68439 4.158C9.52572 3.98067 9.27839 3.892 8.94239 3.892C8.60639 3.892 8.35906 3.98067 8.20039 4.158C8.04172 4.33533 7.93906 4.578 7.89239 4.886C7.84572 5.18467 7.82239 5.59533 7.82239 6.118V8.47C7.82239 8.99267 7.84572 9.408 7.89239 9.716C7.93906 10.0147 8.04172 10.2527 8.20039 10.43C8.35906 10.6073 8.60639 10.696 8.94239 10.696Z" transform="translate(0.994019 0.660004)" fill="#219653"/>
<path d="M15.0102 11.466C14.4875 11.466 14.0069 11.2093 13.5682 10.696V11.34H12.5462V0H13.5682V3.92C13.7455 3.68667 13.9649 3.49533 14.2262 3.346C14.4875 3.19667 14.7815 3.122 15.1082 3.122C15.8175 3.122 16.3029 3.416 16.5642 4.004C16.8255 4.592 16.9562 5.37133 16.9562 6.342V8.05C16.9562 9.16067 16.8115 10.01 16.5222 10.598C16.2329 11.1767 15.7289 11.466 15.0102 11.466ZM14.8282 10.654C15.2669 10.654 15.5562 10.4533 15.6962 10.052C15.8455 9.65067 15.9202 8.99267 15.9202 8.078V6.342C15.9202 5.474 15.8455 4.85333 15.6962 4.48C15.5562 4.10667 15.2622 3.92 14.8142 3.92C14.4035 3.92 13.9882 4.13 13.5682 4.55V10.066C13.9229 10.458 14.3429 10.654 14.8282 10.654Z" transform="translate(0.994019 0.660004)" fill="#219653"/>
<path d="M21.4238 0H22.4878V10.542H25.7078V11.34H21.4238V0Z" transform="translate(0.994019 0.660004)" fill="#219653"/>
<path d="M26.6715 0.742001H27.6935V2.128H26.6715V0.742001ZM26.6715 3.248H27.6935V11.34H26.6715V3.248Z" transform="translate(0.994019 0.660004)" fill="#219653"/>
<path d="M29.417 3.248H30.439V4.088C30.7096 3.78933 31.0083 3.556 31.335 3.388C31.671 3.21067 32.021 3.122 32.385 3.122C32.7863 3.122 33.0943 3.27133 33.309 3.57C33.5236 3.86867 33.631 4.29333 33.631 4.844V11.34H32.609V5.068C32.609 4.65733 32.5436 4.36333 32.413 4.186C32.2916 4.00867 32.1003 3.92 31.839 3.92C31.615 3.92 31.3816 3.99 31.139 4.13C30.8963 4.26067 30.663 4.44267 30.439 4.676V11.34H29.417V3.248Z" transform="translate(0.994019 0.660004)" fill="#219653"/>
<path d="M36.9375 11.466C36.2468 11.466 35.7475 11.2047 35.4395 10.682C35.1408 10.1593 34.9915 9.29133 34.9915 8.078V6.58C34.9915 5.432 35.1268 4.56867 35.3975 3.99C35.6681 3.41133 36.1675 3.122 36.8955 3.122C37.4181 3.122 37.8941 3.35533 38.3235 3.822V0H39.3455V11.34H38.3235V10.766C37.8941 11.2327 37.4321 11.466 36.9375 11.466ZM37.1475 10.654C37.5395 10.654 37.9315 10.4767 38.3235 10.122V4.494C37.8941 4.11133 37.4928 3.92 37.1195 3.92C36.6901 3.92 36.3961 4.102 36.2375 4.466C36.0881 4.83 36.0135 5.42267 36.0135 6.244V8.162C36.0135 9.03933 36.0881 9.674 36.2375 10.066C36.3961 10.458 36.6995 10.654 37.1475 10.654Z" transform="translate(0.994019 0.660004)" fill="#219653"/>
<path d="M42.7767 11.466C42.142 11.466 41.6287 11.2607 41.2367 10.85C40.854 10.4393 40.6347 9.87933 40.5787 9.17L41.4327 8.904C41.4887 9.52 41.6333 9.97267 41.8667 10.262C42.1 10.5513 42.4267 10.696 42.8467 10.696C43.2013 10.696 43.472 10.598 43.6587 10.402C43.8547 10.1967 43.9527 9.912 43.9527 9.548C43.9527 9.016 43.626 8.47467 42.9727 7.924L41.8667 6.972C41.484 6.65467 41.204 6.342 41.0267 6.034C40.8493 5.726 40.7607 5.362 40.7607 4.942C40.7607 4.37267 40.9333 3.92933 41.2787 3.612C41.6333 3.28533 42.1047 3.122 42.6927 3.122C43.29 3.122 43.7473 3.31333 44.0647 3.696C44.3913 4.07867 44.5733 4.59667 44.6107 5.25L43.8827 5.488C43.8267 4.424 43.444 3.892 42.7347 3.892C42.4173 3.892 42.1653 3.98067 41.9787 4.158C41.792 4.326 41.6987 4.564 41.6987 4.872C41.6987 5.124 41.7453 5.34333 41.8387 5.53C41.932 5.71667 42.1047 5.922 42.3567 6.146L43.5047 7.168C43.9433 7.56 44.2747 7.92867 44.4987 8.274C44.732 8.61 44.8487 9.02533 44.8487 9.52C44.8487 10.136 44.662 10.6167 44.2887 10.962C43.9153 11.298 43.4113 11.466 42.7767 11.466Z" transform="translate(0.994019 0.660004)" fill="#219653"/>
<path d="M48.0446 11.466C47.5219 11.466 47.1019 11.3633 46.7846 11.158C46.4673 10.9527 46.2339 10.6213 46.0846 10.164C45.9353 9.70667 45.8606 9.086 45.8606 8.302V6.258C45.8606 5.46467 45.9353 4.844 46.0846 4.396C46.2433 3.93867 46.4813 3.612 46.7986 3.416C47.1253 3.22 47.5453 3.122 48.0586 3.122C48.6186 3.122 49.0479 3.24333 49.3466 3.486C49.6546 3.71933 49.8646 4.074 49.9766 4.55C50.0979 5.026 50.1586 5.66533 50.1586 6.468V7.196H46.8826V8.61C46.8826 9.38467 46.9713 9.926 47.1486 10.234C47.3259 10.542 47.6246 10.696 48.0446 10.696C48.3993 10.696 48.6699 10.584 48.8566 10.36C49.0526 10.136 49.1506 9.73 49.1506 9.142V8.582H50.1446V9.03C50.1446 9.814 49.9813 10.416 49.6546 10.836C49.3279 11.256 48.7913 11.466 48.0446 11.466ZM49.1506 6.608V5.936C49.1506 5.45067 49.1226 5.068 49.0666 4.788C49.0199 4.508 48.9173 4.28867 48.7586 4.13C48.5999 3.97133 48.3619 3.892 48.0446 3.892C47.7553 3.892 47.5266 3.95733 47.3586 4.088C47.1906 4.20933 47.0693 4.42867 46.9946 4.746C46.9199 5.054 46.8826 5.49267 46.8826 6.062V6.608H49.1506Z" transform="translate(0.994019 0.660004)" fill="#219653"/>
<path d="M51.314 12.558C51.9674 12.558 52.406 12.488 52.63 12.348C52.854 12.208 52.966 11.998 52.966 11.718C52.966 11.5407 52.924 11.2887 52.84 10.962C52.7654 10.626 52.7187 10.43 52.7 10.374L51.034 3.248H52.056L53.456 10.136L54.814 3.248H55.85L53.89 11.914C53.7687 12.4273 53.526 12.796 53.162 13.02C52.798 13.244 52.2707 13.356 51.58 13.356H51.314V12.558Z" transform="translate(0.994019 0.660004)" fill="#219653"/>
<path d="M59.9375 0H62.4015C63.5215 0 64.3148 0.289334 64.7815 0.868001C65.2482 1.43733 65.4815 2.25867 65.4815 3.332V7.84C65.4815 8.96933 65.2528 9.83733 64.7955 10.444C64.3475 11.0413 63.5822 11.34 62.4995 11.34H59.9375V0ZM62.4295 10.542C62.9988 10.542 63.4235 10.4253 63.7035 10.192C63.9928 9.94933 64.1795 9.632 64.2635 9.24C64.3475 8.83867 64.3895 8.316 64.3895 7.672V3.444C64.3895 2.828 64.3382 2.338 64.2355 1.974C64.1328 1.60067 63.9368 1.316 63.6475 1.12C63.3582 0.924001 62.9382 0.826 62.3875 0.826H61.0015V10.542H62.4295Z" transform="translate(0.994019 0.660004)" fill="#219653"/>
<path d="M69.0583 11.466C68.5356 11.466 68.1156 11.3633 67.7983 11.158C67.4809 10.9527 67.2476 10.6213 67.0983 10.164C66.9489 9.70667 66.8743 9.086 66.8743 8.302V6.258C66.8743 5.46467 66.9489 4.844 67.0983 4.396C67.2569 3.93867 67.4949 3.612 67.8123 3.416C68.1389 3.22 68.5589 3.122 69.0723 3.122C69.6323 3.122 70.0616 3.24333 70.3603 3.486C70.6683 3.71933 70.8783 4.074 70.9903 4.55C71.1116 5.026 71.1723 5.66533 71.1723 6.468V7.196H67.8963V8.61C67.8963 9.38467 67.9849 9.926 68.1623 10.234C68.3396 10.542 68.6383 10.696 69.0583 10.696C69.4129 10.696 69.6836 10.584 69.8703 10.36C70.0663 10.136 70.1643 9.73 70.1643 9.142V8.582H71.1583V9.03C71.1583 9.814 70.9949 10.416 70.6683 10.836C70.3416 11.256 69.8049 11.466 69.0583 11.466ZM70.1643 6.608V5.936C70.1643 5.45067 70.1363 5.068 70.0803 4.788C70.0336 4.508 69.9309 4.28867 69.7723 4.13C69.6136 3.97133 69.3756 3.892 69.0583 3.892C68.7689 3.892 68.5403 3.95733 68.3723 4.088C68.2043 4.20933 68.0829 4.42867 68.0083 4.746C67.9336 5.054 67.8963 5.49267 67.8963 6.062V6.608H70.1643Z" transform="translate(0.994019 0.660004)" fill="#219653"/>
<path d="M74.3997 11.466C73.7651 11.466 73.2517 11.2607 72.8597 10.85C72.4771 10.4393 72.2577 9.87933 72.2017 9.17L73.0557 8.904C73.1117 9.52 73.2564 9.97267 73.4897 10.262C73.723 10.5513 74.0497 10.696 74.4697 10.696C74.8244 10.696 75.095 10.598 75.2817 10.402C75.4777 10.1967 75.5757 9.912 75.5757 9.548C75.5757 9.016 75.2491 8.47467 74.5957 7.924L73.4897 6.972C73.107 6.65467 72.8271 6.342 72.6497 6.034C72.4724 5.726 72.3837 5.362 72.3837 4.942C72.3837 4.37267 72.5564 3.92933 72.9017 3.612C73.2564 3.28533 73.7277 3.122 74.3157 3.122C74.913 3.122 75.3704 3.31333 75.6877 3.696C76.0144 4.07867 76.1964 4.59667 76.2337 5.25L75.5057 5.488C75.4497 4.424 75.067 3.892 74.3577 3.892C74.0404 3.892 73.7884 3.98067 73.6017 4.158C73.415 4.326 73.3217 4.564 73.3217 4.872C73.3217 5.124 73.3684 5.34333 73.4617 5.53C73.555 5.71667 73.7277 5.922 73.9797 6.146L75.1277 7.168C75.5664 7.56 75.8977 7.92867 76.1217 8.274C76.3551 8.61 76.4717 9.02533 76.4717 9.52C76.4717 10.136 76.285 10.6167 75.9117 10.962C75.5384 11.298 75.0344 11.466 74.3997 11.466Z" transform="translate(0.994019 0.660004)" fill="#219653"/>
<path d="M77.7497 0.742001H78.7717V2.128H77.7497V0.742001ZM77.7497 3.248H78.7717V11.34H77.7497V3.248Z" transform="translate(0.994019 0.660004)" fill="#219653"/>
<path d="M82.5531 14C81.7224 14 81.0784 13.8787 80.6211 13.636C80.1731 13.3933 79.9491 13.0247 79.9491 12.53C79.9491 12.1567 80.0751 11.816 80.3271 11.508C80.5884 11.2 80.9057 10.9527 81.2791 10.766C80.6817 10.6073 80.3831 10.3133 80.3831 9.884C80.3831 9.62267 80.4577 9.38467 80.6071 9.17C80.7657 8.946 81.0131 8.694 81.3491 8.414C80.9944 8.15267 80.7331 7.82133 80.5651 7.42C80.4064 7.00933 80.3271 6.51933 80.3271 5.95C80.3271 5.12867 80.5184 4.452 80.9011 3.92C81.2837 3.388 81.8484 3.122 82.5951 3.122C83.4164 3.122 83.9951 3.458 84.3311 4.13C84.4151 3.98067 84.5597 3.81733 84.7651 3.64C84.9797 3.45333 85.1991 3.31333 85.4231 3.22L85.6331 3.15L85.9131 3.864C85.6891 3.90133 85.4371 3.99467 85.1571 4.144C84.8864 4.29333 84.6951 4.43333 84.5831 4.564C84.6484 4.74133 84.7044 4.97467 84.7511 5.264C84.8071 5.544 84.8351 5.782 84.8351 5.978C84.8351 6.846 84.6577 7.53667 84.3031 8.05C83.9484 8.554 83.3837 8.806 82.6091 8.806C82.4691 8.806 82.3197 8.79667 82.1611 8.778C82.0117 8.75 81.8857 8.71733 81.7831 8.68C81.4191 9.044 81.2371 9.352 81.2371 9.604C81.2371 9.73467 81.2884 9.83733 81.3911 9.912C81.5031 9.97733 81.6757 10.024 81.9091 10.052L83.1971 10.248C83.8691 10.3507 84.3731 10.556 84.7091 10.864C85.0544 11.1627 85.2271 11.5827 85.2271 12.124C85.2271 12.7493 84.9844 13.216 84.4991 13.524C84.0231 13.8413 83.3744 14 82.5531 14ZM82.6091 8.064C83.1411 8.064 83.4957 7.868 83.6731 7.476C83.8504 7.084 83.9391 6.57533 83.9391 5.95C83.9391 4.55 83.4957 3.85 82.6091 3.85C82.0957 3.85 81.7411 4.05533 81.5451 4.466C81.3491 4.87667 81.2511 5.37133 81.2511 5.95C81.2511 7.35933 81.7037 8.064 82.6091 8.064ZM82.5951 13.174C83.1644 13.174 83.6077 13.09 83.9251 12.922C84.2517 12.754 84.4151 12.4927 84.4151 12.138C84.4151 11.8393 84.3077 11.606 84.0931 11.438C83.8877 11.27 83.4864 11.1393 82.8891 11.046L81.8531 10.906C81.5451 11.13 81.2931 11.3447 81.0971 11.55C80.9104 11.7647 80.8171 12.0073 80.8171 12.278C80.8171 12.586 80.9617 12.81 81.2511 12.95C81.5404 13.0993 81.9884 13.174 82.5951 13.174Z" transform="translate(0.994019 0.660004)" fill="#219653"/>
<path d="M86.5244 3.248H87.5464V4.088C87.817 3.78933 88.1157 3.556 88.4424 3.388C88.7784 3.21067 89.1284 3.122 89.4924 3.122C89.8937 3.122 90.2017 3.27133 90.4164 3.57C90.631 3.86867 90.7384 4.29333 90.7384 4.844V11.34H89.7164V5.068C89.7164 4.65733 89.651 4.36333 89.5204 4.186C89.399 4.00867 89.2077 3.92 88.9464 3.92C88.7224 3.92 88.489 3.99 88.2464 4.13C88.0037 4.26067 87.7704 4.44267 87.5464 4.676V11.34H86.5244V3.248Z" transform="translate(0.994019 0.660004)" fill="#219653"/>
</svg>
