
<svg width="30px" height="31px" viewBox="0 0 30 31" version="1.1" xmlns="http://www.w3.org/2000/svg" xmlns:xlink="http://www.w3.org/1999/xlink">
    <!-- Generator: Sketch 50.2 (55047) - http://www.bohemiancoding.com/sketch -->
    <desc>Created with Sketch.</desc>
    <defs></defs>
    <g id="Mobile" stroke="none" stroke-width="1" fill="none" fill-rule="evenodd">
        <g id="iPhone-8-Copy" transform="translate(-172.000000, -94.000000)" fill="#FBFAEE">
            <g id="Group-6" transform="translate(161.000000, 60.000000)">
                <g id="idea-rJCdsHsAz" transform="translate(11.000000, 34.000000)">
                    <path d="M22.0331221,8.13789091 C22.1820676,8.13789091 22.331013,8.08087273 22.4444676,7.96741819 L24.9131221,5.49876364 C25.140613,5.27127273 25.140613,4.90356364 24.9131221,4.67607273 C24.6856312,4.44858181 24.3179221,4.44858181 24.0904312,4.67607273 L21.6217766,7.14472727 C21.3942857,7.37221819 21.3942857,7.73992727 21.6217766,7.96741819 C21.7352312,8.08087273 21.8841766,8.13789091 22.0331221,8.13789091 Z M6.81101298,7.96741819 C6.92446753,8.08087273 7.07341298,8.13789091 7.22235845,8.13789091 C7.3713039,8.13789091 7.52024935,8.08087273 7.6337039,7.96741819 C7.86119481,7.73992727 7.86119481,7.37221819 7.6337039,7.14472727 L5.16504935,4.67607273 C4.93755845,4.44858181 4.56984935,4.44858181 4.34235845,4.67607273 C4.11486753,4.90356364 4.11486753,5.27127273 4.34235845,5.49876364 L6.81101298,7.96741819 Z M28.5913766,14.3796364 L25.1004676,14.3796364 C24.7787221,14.3796364 24.5186493,14.6402909 24.5186493,14.9614545 C24.5186493,15.2826181 24.7787221,15.5432727 25.1004676,15.5432727 L28.5913766,15.5432727 C28.9131221,15.5432727 29.1731948,15.2826181 29.1731948,14.9614545 C29.1731948,14.6402909 28.9131221,14.3796364 28.5913766,14.3796364 Z M4.73741298,14.9614545 C4.73741298,14.6402909 4.47675845,14.3796364 4.15559481,14.3796364 L0.664103896,14.3796364 C0.34294026,14.3796364 0.0822857143,14.6402909 0.0822857143,14.9614545 C0.0822857143,15.2826181 0.34294026,15.5432727 0.664103896,15.5432727 L4.15559481,15.5432727 C4.47675845,15.5432727 4.73741298,15.2826181 4.73741298,14.9614545 Z M14.6277403,5.07054545 C14.9489039,5.07054545 15.2095584,4.80989091 15.2095584,4.48872727 L15.2095584,0.997818181 C15.2095584,0.676654545 14.9489039,0.416 14.6277403,0.416 C14.3065766,0.416 14.0459221,0.676654545 14.0459221,0.997818181 L14.0459221,4.48872727 C14.0459221,4.80989091 14.3065766,5.07054545 14.6277403,5.07054545 Z M18.452613,5.83970909 C18.5259221,5.87054545 18.6027221,5.88509091 18.6777766,5.88509091 C18.9052676,5.88509091 19.1211221,5.75069091 19.214213,5.52785455 L20.5640312,2.30865455 C20.6885403,2.01250909 20.5494857,1.67156364 20.2527584,1.54705455 C19.9571948,1.42370909 19.6150857,1.56218181 19.4911584,1.85890909 L18.1413403,5.07810909 C18.0168312,5.37425455 18.1558857,5.7152 18.452613,5.83970909 Z M27.7302857,19.8248727 L24.5110857,18.4750545 C24.2149403,18.3482181 23.873413,18.4901819 23.7494857,18.7863273 C23.6249766,19.0830545 23.7640312,19.424 24.0607584,19.5479273 L27.2799584,20.8977455 C27.3532676,20.9291636 27.4300676,20.9431273 27.5051221,20.9431273 C27.732613,20.9431273 27.9484676,20.8093091 28.0415584,20.5864727 C28.1660676,20.2897455 28.0264312,19.9488 27.7302857,19.8248727 Z M5.1953039,10.3744 L1.97552208,9.02458181 C1.67763117,8.90123636 1.33784935,9.03970909 1.21392208,9.33643636 C1.08999481,9.63316361 1.22904935,9.97352731 1.52577662,10.0980364 L4.74555845,11.4478545 C4.81886753,11.4786909 4.89508571,11.4932364 4.97014026,11.4932364 C5.19763117,11.4932364 5.41348571,11.3588364 5.50715845,11.136 C5.63108571,10.8398545 5.49144935,10.4989091 5.1953039,10.3744 Z M23.7820676,11.2157091 C23.8739948,11.4408727 24.0915948,11.5776 24.3208312,11.5776 C24.3941403,11.5776 24.4691948,11.5636364 24.5413403,11.5339636 L27.7721766,10.2126545 C28.0694857,10.0910545 28.2120312,9.75127269 28.0904312,9.45396364 C27.9688312,9.15607273 27.6278857,9.01469091 27.3311584,9.13570909 L24.1003221,10.4570181 C23.8035948,10.5792 23.6604676,10.9189819 23.7820676,11.2157091 Z M4.7153039,18.3877819 L1.4833039,19.7102545 C1.18599481,19.8324364 1.04344935,20.1716364 1.16563117,20.4695273 C1.25755845,20.6946909 1.47515845,20.8308364 1.70439481,20.8308364 C1.7777039,20.8308364 1.85217662,20.8174545 1.92432208,20.7877819 L5.15632208,19.4653091 C5.45363117,19.3431273 5.59617662,19.0039273 5.47399481,18.7060364 C5.35297662,18.4093091 5.01377662,18.2661819 4.7153039,18.3877819 Z M10.1238857,5.48887273 C10.2163948,5.71403636 10.433413,5.85076364 10.6626493,5.85076364 C10.7359584,5.85076364 10.8104312,5.8368 10.8825766,5.80712727 C11.1798857,5.68552727 11.3224312,5.34574545 11.2008312,5.04843636 L9.8795221,1.81701819 C9.7579221,1.51970909 9.41814025,1.37774545 9.12083117,1.49876364 C8.82352208,1.62036364 8.68097662,1.96014545 8.80257662,2.25745455 L10.1238857,5.48887273 Z M15.7913766,29.5069091 L13.4641039,29.5069091 C13.1429403,29.5069091 12.8822857,29.7669819 12.8822857,30.0887273 C12.8822857,30.4104727 13.1429403,30.6705455 13.4641039,30.6705455 L15.7913766,30.6705455 C16.1131221,30.6705455 16.3731948,30.4104727 16.3731948,30.0887273 C16.3731948,29.7669819 16.1131221,29.5069091 15.7913766,29.5069091 Z M14.6277403,6.23418181 C9.8155221,6.23418181 5.90046753,10.1492364 5.90046753,14.9614545 C5.90046753,18.6449455 8.27195845,21.9659636 11.7186493,23.1872 L11.7186493,26.3069091 C11.7186493,27.4298181 12.6321039,28.3432727 13.755013,28.3432727 L15.5004676,28.3432727 C16.6233766,28.3432727 17.5368312,27.4298181 17.5368312,26.3069091 L17.5368312,23.1872 C20.9835221,21.9659636 23.355013,18.6449455 23.355013,14.9614545 C23.355013,10.1492364 19.4399584,6.23418181 14.6277403,6.23418181 Z M18.6201766,14.8241455 C18.5393039,14.8887273 18.4467948,14.9207273 18.3519584,14.9364364 L16.3429403,20.9634909 C16.2620676,21.2072727 16.0351584,21.3614545 15.7913766,21.3614545 C15.7308676,21.3614545 15.668613,21.3515636 15.6075221,21.3312 C15.3032312,21.2299636 15.1379948,20.9006545 15.239813,20.5952 L17.3494857,14.2656 C16.6059221,13.5953455 15.6465039,13.216 14.6277403,13.216 C13.6101403,13.216 12.6495584,13.5953455 11.9059948,14.2661819 L14.0156676,20.5957819 C14.1174857,20.9006545 13.9528312,21.2305455 13.6479584,21.3317819 C13.5868676,21.3515636 13.524613,21.3614545 13.4641039,21.3614545 C13.2203221,21.3614545 12.993413,21.2072727 12.9119584,20.9634909 L10.8936312,14.9085091 C10.8081039,14.8893091 10.7249039,14.8567273 10.6521766,14.7973819 C10.4031584,14.5943273 10.3665039,14.2277819 10.5695584,13.9787636 C10.5736312,13.9735273 10.5782857,13.9694545 10.5823584,13.9648 C10.4927584,13.6651636 10.6539221,13.3463273 10.9523948,13.2462545 C11.0716676,13.2066909 11.1903584,13.2171636 11.3014857,13.2509091 C12.2312312,12.4829091 13.3977766,12.0523636 14.6277403,12.0523636 C15.8594493,12.0523636 17.025413,12.4823273 17.9551584,13.2503273 C18.0651221,13.2171636 18.1843948,13.2066909 18.3030857,13.2462545 C18.6027221,13.3463273 18.7638857,13.6663273 18.6725403,13.9671273 C18.6841766,13.9805091 18.6969766,13.9927273 18.708613,14.0066909 C18.9093403,14.2562909 18.8703584,14.6222545 18.6201766,14.8241455 Z" id="Shape"></path>
                </g>
            </g>
        </g>
    </g>
</svg>